<?xml version="1.0" encoding="UTF-8"?>
<svg version="1.1" xmlns="http://www.w3.org/2000/svg" width="1179" height="310">
<path d="M0 0 C12.27285072 10.26539558 18.72518321 24.36965367 21 40 C21.09512213 42.08980554 21.14501141 44.18199509 21.15771484 46.27392578 C21.16797699 47.49604767 21.17823914 48.71816956 21.18881226 49.97732544 C21.19611359 51.28676117 21.20341492 52.5961969 21.2109375 53.9453125 C21.22392531 55.32047304 21.23774401 56.69562596 21.25234985 58.07077026 C21.313539 63.88304823 21.36778013 69.69530398 21.40136719 75.5078125 C21.42252158 79.07461535 21.45798639 82.64104866 21.50212479 86.20763779 C21.52285047 88.20134299 21.52829534 90.1951887 21.53329468 92.18899536 C21.65215059 101.09278401 21.84463323 110.73599085 27.3125 118.125 C30.15550973 120.10849516 32.71049712 120.97458255 36 122 C35.84289551 121.15743652 35.84289551 121.15743652 35.68261719 120.29785156 C34.41970647 112.41664921 33.35487001 104.11185423 37.85009766 97.12402344 C42.58982928 91.58009869 48.02090637 86.85579461 53.57666016 82.15136719 C56.44250663 79.60715612 58.87750588 76.85699637 61.33959961 73.92919922 C64.20432285 70.60071178 67.36634574 67.57271318 70.5 64.5 C76.17600394 58.91548793 76.17600394 58.91548793 81.5 53 C83.76666566 50.36181698 86.09915435 47.84572613 88.5703125 45.3984375 C89.23353516 44.7384375 89.89675781 44.0784375 90.58007812 43.3984375 C91.91196196 42.08054672 93.24647079 40.76530184 94.58398438 39.453125 C95.20853516 38.83695313 95.83308594 38.22078125 96.4765625 37.5859375 C97.03424316 37.0398584 97.59192383 36.4937793 98.16650391 35.93115234 C100.56925182 33.4004285 102.76597101 30.68083479 105 28 C82.23 27.67 59.46 27.34 36 27 C36 12.48 36 -2.04 36 -17 C79.23 -17 122.46 -17 167 -17 C167 -2.15 167 12.7 167 28 C162.05 32.95 157.1 37.9 152 43 C149.4816953 45.8749119 149.4816953 45.8749119 147 48.78125 C143.3273033 52.8556479 139.36518413 56.65275034 135.46875 60.51171875 C132.36994552 63.59207796 129.31670228 66.65516604 126.5 70 C122.46994513 74.78569016 117.93662895 79.0871083 113.49511719 83.48535156 C109.5999806 87.35705875 105.82658685 91.27149311 102.296875 95.484375 C100.94602362 97.06308083 99.46920243 98.53079757 98 100 C120.77 100.33 143.54 100.66 167 101 C167 115.52 167 130.04 167 145 C123.77 145 80.54 145 36 145 C35.67 139.39 35.34 133.78 35 128 C33.06937335 129.01611929 31.13880752 130.03235428 29.20849609 131.04907227 C27.51060138 131.94208662 25.81168602 132.83316278 24.11181641 133.72241211 C19.65709961 136.05628388 15.22310824 138.41780334 10.82421875 140.85546875 C9.9938208 141.30937988 9.16342285 141.76329102 8.30786133 142.23095703 C6.72686631 143.09626028 5.1520358 143.97295809 3.5847168 144.86279297 C-1.43658317 147.58821506 -6.20611771 149.28072935 -12 149 C-19.35114569 145.39377759 -22.29619649 139.82244721 -25.16796875 132.5 C-26.73426745 127.79375038 -27.15827152 123.33407677 -27.31640625 118.38671875 C-27.35830078 117.13955078 -27.40019531 115.89238281 -27.44335938 114.60742188 C-27.48267578 113.31384766 -27.52199219 112.02027344 -27.5625 110.6875 C-27.62727539 108.71813477 -27.62727539 108.71813477 -27.69335938 106.70898438 C-27.79927227 103.47275712 -27.90134885 100.23645542 -28 97 C-34.5348337 106.66673556 -40.87165917 116.44618161 -47.08837891 126.32080078 C-53.4718782 136.42482262 -58.75626369 144.72236908 -70.8125 148.375 C-82.56878892 150.66948697 -95.26050253 149.43454767 -105.375 142.8125 C-114.12746946 136.10788397 -119.34275792 126.92841713 -121 116 C-122.13070604 97.16725685 -118.06369678 82.53367496 -105.56640625 68.2109375 C-91.36044476 54.24282316 -71.73107358 47.26444482 -52.0625 46.6875 C-44.217562 46.81301901 -36.42978253 48.52340582 -29 51 C-32.74130838 40.26024417 -37.55806391 32.24602869 -48 27 C-53.1941783 25.18172731 -57.81402097 24.64426417 -63.25 24.6875 C-64.36870483 24.69595947 -64.36870483 24.69595947 -65.51000977 24.70458984 C-76.90065208 24.95320246 -87.1747883 28.20320397 -95.40234375 36.390625 C-97.33354198 38.54922267 -99.19706478 40.73374065 -101 43 C-104.72702758 39.70849025 -106.88583903 35.89567394 -109.1875 31.5625 C-112.77925511 24.96313174 -116.73286622 18.84144129 -121.15234375 12.76953125 C-122.85457294 10.21798686 -123.99260188 7.88506162 -125 5 C-93.34866574 -29.86648108 -35.61790684 -28.93151278 0 0 Z M-56 61 C-57.299375 61.8353125 -57.299375 61.8353125 -58.625 62.6875 C-65.54457559 69.4249815 -70.9082185 77.77079227 -71.4375 87.5625 C-71.2548244 92.37018979 -69.85516698 95.14166625 -67 99 C-61.59632905 102.95390557 -56.51967898 103.69529807 -50 103 C-42.20651868 101.08516969 -36.37364723 96.87546642 -31 91 C-29.89591797 89.82824219 -29.89591797 89.82824219 -28.76953125 88.6328125 C-25.45925532 83.46884715 -26.47052508 76.624527 -26.5625 70.75 C-26.55541016 69.45835937 -26.54832031 68.16671875 -26.54101562 66.8359375 C-26.53532798 61.90009314 -26.53532798 61.90009314 -27 57 C-36.38709979 50.74193347 -47.46648049 55.46428375 -56 61 Z " fill="#FF2961" transform="translate(317,94)"/>
<path d="M0 0 C14.71776908 -0.07042405 29.43551552 -0.12315034 44.15341949 -0.15543652 C50.98889333 -0.17083334 57.82426181 -0.19178329 64.65966797 -0.22631836 C71.26678714 -0.25968381 77.87382633 -0.27689664 84.48103333 -0.28463173 C86.99096896 -0.2901381 89.50089922 -0.30088974 92.01078796 -0.31719017 C117.6628933 -0.47703164 139.71703018 1.50424704 159.3125 19.875 C169.53406052 30.66094116 173.64477868 44.05671449 173.47485352 58.73461914 C172.9009171 72.69828555 166.9916802 84.49885924 157.625 94.625 C153.24290454 98.58975303 148.24000682 101.32236538 143 104 C143.75023437 104.15855469 144.50046875 104.31710938 145.2734375 104.48046875 C158.64043546 107.52760557 169.02416536 112.68274043 176.75 124.3125 C185.86949872 139.56013566 188.54391982 156.83444823 184.375 174.1875 C181.26153557 185.98071291 175.53680881 194.41895902 167 203 C166.40832031 203.62648437 165.81664062 204.25296875 165.20703125 204.8984375 C149.68113162 220.04732853 125.21722283 224.18425757 104.44335938 224.11352539 C102.74448578 224.11374443 102.74448578 224.11374443 101.0112915 224.1139679 C97.2887578 224.11327437 93.5662749 224.10550825 89.84375 224.09765625 C87.2544355 224.09579008 84.66512064 224.09436712 82.07580566 224.09336853 C75.97034979 224.08994784 69.86491471 224.08207608 63.75946665 224.07201904 C56.80415601 224.06081261 49.84884447 224.05533607 42.89352703 224.05032361 C28.59567502 224.03989215 14.29783815 224.02232103 0 224 C0.50660156 223.07380859 0.50660156 223.07380859 1.0234375 222.12890625 C7.15009664 210.49533673 7.29522745 200.08307567 7.2746582 187.1862793 C7.27901044 185.38178294 7.28419529 183.57728843 7.29014587 181.77279663 C7.3034931 176.89042719 7.30411924 172.00813537 7.30158257 167.12575126 C7.30050981 163.04054485 7.30540411 158.95535394 7.310188 154.87015086 C7.32126872 145.22665444 7.32172888 135.58319697 7.31567383 125.93969727 C7.30963663 116.01324227 7.32194194 106.08692912 7.3432439 96.16049832 C7.36089666 87.61836494 7.36685541 79.07627656 7.36360615 70.53412563 C7.36179878 65.44101751 7.36437468 60.34801055 7.37832069 55.25491905 C7.39095408 50.46217792 7.38890309 45.66965679 7.37590981 40.87691879 C7.37355632 39.12587597 7.37623428 37.37481739 7.38453293 35.62379265 C7.44139004 22.68598657 6.43575837 11.53998052 0 0 Z M61 45 C61 58.53 61 72.06 61 86 C69.8790625 86.061875 69.8790625 86.061875 78.9375 86.125 C80.78722412 86.14320801 82.63694824 86.16141602 84.54272461 86.18017578 C86.03759472 86.18602654 87.53246807 86.19112071 89.02734375 86.1953125 C89.78019653 86.20554443 90.53304932 86.21577637 91.30871582 86.22631836 C100.65144368 86.22932874 108.17133584 84.64368906 115 78 C119.29181658 73.27295695 119.678896 68.16639342 119.4453125 61.9375 C118.5009902 55.70828622 115.33197736 51.76707756 110.375 48.0625 C106.5723863 45.73868052 104.07301028 44.87368619 99.7121582 44.88647461 C98.85149246 44.88655014 97.99082672 44.88662567 97.1040802 44.88670349 C96.17899155 44.89186478 95.25390289 44.89702606 94.30078125 44.90234375 C93.35059616 44.9037587 92.40041107 44.90517365 91.4214325 44.90663147 C88.38508971 44.91223125 85.34882052 44.92478368 82.3125 44.9375 C80.25455836 44.94251503 78.19661556 44.94707793 76.13867188 44.95117188 C71.09239671 44.96134992 66.0462808 44.98092544 61 45 Z M61 128 C61 145.16 61 162.32 61 180 C68.71375 180.061875 76.4275 180.12375 84.375 180.1875 C86.78989746 180.21481201 89.20479492 180.24212402 91.69287109 180.27026367 C93.63638816 180.27903677 95.57991081 180.28667875 97.5234375 180.29296875 C99.00130737 180.3159906 99.00130737 180.3159906 100.5090332 180.33947754 C109.52411893 180.34283553 117.84913668 178.82047015 125 173 C130.27029034 167.60714477 133.07284994 162.10311457 133.375 154.5625 C133.03384 146.62029515 130.47961152 140.52935771 125.03515625 134.7265625 C119.41364034 129.95744536 112.32136949 127.86772843 105.04785156 127.88647461 C104.05350098 127.88659546 103.05915039 127.88671631 102.03466797 127.88684082 C100.99713379 127.89195679 99.95959961 127.89707275 98.890625 127.90234375 C97.93140137 127.90335083 96.97217773 127.90435791 95.98388672 127.90539551 C92.40591229 127.91062151 88.82795493 127.92458278 85.25 127.9375 C77.2475 127.958125 69.245 127.97875 61 128 Z " fill="#FF115A" transform="translate(0,15)"/>
<path d="M0 0 C3.244024 0.66742187 5.85454027 1.84585698 8.7734375 3.3984375 C10.1346875 4.11773437 10.1346875 4.11773437 11.5234375 4.8515625 C12.46445312 5.35429688 13.40546875 5.85703125 14.375 6.375 C16.23673504 7.36243958 18.09870804 8.34943067 19.9609375 9.3359375 C20.83202148 9.79838867 21.70310547 10.26083984 22.60058594 10.73730469 C25.3809465 12.20047368 28.18058642 13.6138669 31 15 C29.74954469 25.01835372 23.78152323 34.3682115 15.9375 40.65234375 C6.60499426 47.27907092 -3.16053858 48.94398088 -14.375 49.5625 C-15.11105469 49.60568359 -15.84710937 49.64886719 -16.60546875 49.69335938 C-18.40348068 49.79843799 -20.20171958 49.89962093 -22 50 C-21.18917969 50.52207031 -20.37835937 51.04414062 -19.54296875 51.58203125 C-0.96225997 63.81294303 12.90688168 81.0378987 17.4921875 103.2265625 C20.36759957 124.59308605 16.42617503 144.95512607 3.1875 162.3125 C-9.06476707 176.71719237 -24.81587425 186.83912984 -43.6875 189.7734375 C-49.43194904 190.16633614 -55.19166099 190.07565648 -60.94580078 189.92724609 C-69.7355525 189.76022364 -77.80331944 190.63776742 -85 196 C-89.21352202 201.16094118 -89.56883282 206.7569487 -89.31640625 213.23046875 C-88.72792521 218.38149414 -86.9137523 221.01938778 -83.4375 224.75 C-77.55201225 229.19649319 -70.71831159 229.31355652 -63.625 228.5625 C-54.87080978 227.09553015 -46.69083066 223.95027981 -38.390625 220.8828125 C-23.07534302 215.22716915 -6.90680255 209.41787481 9 216 C16.08032439 219.84853869 20.22835769 225.42692697 22.66015625 233.07666016 C23.14705783 237.26499315 22.238963 240.92657553 21.34765625 245.01953125 C21.16867294 245.87810226 20.98968964 246.73667328 20.80528259 247.6212616 C20.2334779 250.35368725 19.64819505 253.08302166 19.0625 255.8125 C18.67163269 257.66843187 18.28164853 259.52454997 17.89257812 261.38085938 C16.93860675 265.92279473 15.9725403 270.46200606 15 275 C14.01 275 13.02 275 12 275 C10.421875 273.35546875 10.421875 273.35546875 8.75 271.1875 C4.54851513 266.21252001 0.32390025 264.24993257 -6.0625 263.1875 C-21.18584917 262.01633155 -35.62307845 268.14445476 -49.44970703 273.46337891 C-64.17515773 279.11298621 -79.52464413 281.55001916 -95 277 C-95.80566406 276.77828125 -96.61132812 276.5565625 -97.44140625 276.328125 C-107.32128561 273.05029335 -114.82718727 265.9950894 -119.5625 256.8125 C-123.11633416 249.10373807 -124.39006919 242.15936259 -124.375 233.75 C-124.37338867 232.81921631 -124.37177734 231.88843262 -124.37011719 230.92944336 C-124.19808744 221.28312848 -121.93141127 213.72880863 -116 206 C-115.360625 205.05125 -114.72125 204.1025 -114.0625 203.125 C-105.34028078 192.92671292 -90.67038911 188.49253556 -78 186 C-79.01578125 185.53851563 -80.0315625 185.07703125 -81.078125 184.6015625 C-99.62719258 175.92315986 -113.1383737 163.34247691 -121 144 C-128.13320815 122.80614116 -127.85613412 102.28089135 -118 82 C-117.53078125 81.02417969 -117.0615625 80.04835938 -116.578125 79.04296875 C-107.32594872 61.56918037 -91.33245219 50.4047717 -72.83984375 44.28515625 C-63.20516185 41.74189725 -52.52234197 41.8921472 -42.6081543 42.08813477 C-30.55515653 42.30534477 -22.22425486 39.97945922 -13 32 C-4.55615732 22.94008296 -1.04656837 12.1457014 0 0 Z M-69 93 C-75.61370387 103.33914466 -77.63508297 113.75815386 -75.1875 125.8125 C-73.61190503 131.96169704 -70.91085452 137.81581131 -66 142 C-60.49959916 145.20776441 -55.35213564 146.73535648 -49.02734375 145.6015625 C-42.36547693 143.6248236 -37.26229796 138.13877767 -33.9921875 132.15625 C-29.75089163 122.10890832 -30.41877922 110.91934753 -33.74609375 100.7109375 C-36.13577449 95.20936139 -40.14689547 91.43803093 -45 88 C-53.78096653 85.07301116 -62.56099363 86.11560782 -69 93 Z " fill="#FF5C71" transform="translate(989,31)"/>
<path d="M0 0 C16.74288174 16.43800377 24.89028735 38.85535819 25.34350586 62.02319336 C25.56308182 88.44209601 20.47617307 111.16847233 1.5546875 130.78515625 C-14.77310079 146.1148509 -35.93177866 152.06959206 -57.96875 151.52734375 C-76.00764377 150.46597329 -92.06227615 145.01709473 -106 133.25 C-107.05574219 132.36248047 -107.05574219 132.36248047 -108.1328125 131.45703125 C-124.77313334 116.15446169 -131.90942131 92.80696973 -132.97607422 70.78857422 C-133.62249376 45.9443258 -127.33192204 21.72565294 -110 3.25 C-98.58840554 -8.47225493 -84.09120277 -15.33631958 -68 -17.75 C-67.195625 -17.87375 -66.39125 -17.9975 -65.5625 -18.125 C-42.07998997 -20.98872074 -18.17135273 -15.56096315 0 0 Z M-73.109375 34.03515625 C-82.6664654 45.23116918 -83.89168058 58.90446686 -83.19091797 72.95751953 C-82.34021628 83.17246697 -79.29904824 91.91914763 -72 99.25 C-71.48050781 99.77207031 -70.96101563 100.29414063 -70.42578125 100.83203125 C-64.51716333 106.21337093 -57.99595158 106.76971091 -50.3203125 106.62109375 C-43.24406379 105.83021889 -38.00147243 102.65593413 -33.125 97.5625 C-24.22103614 86.39588179 -23.13790951 71.95660769 -24.2421875 58.2421875 C-25.48885674 48.49781368 -29.4014012 39.58862857 -36 32.25 C-38.2076068 30.66817115 -38.2076068 30.66817115 -40.5625 29.5 C-41.32691406 29.09265625 -42.09132813 28.6853125 -42.87890625 28.265625 C-53.47943309 23.18986629 -64.84778712 26.34277226 -73.109375 34.03515625 Z " fill="#FF6774" transform="translate(1154,91.75)"/>
<path d="M0 0 C12.27285072 10.26539558 18.72518321 24.36965367 21 40 C21.09512213 42.08980554 21.14501141 44.18199509 21.15771484 46.27392578 C21.16797699 47.49604767 21.17823914 48.71816956 21.18881226 49.97732544 C21.19611359 51.28676117 21.20341492 52.5961969 21.2109375 53.9453125 C21.22392531 55.32047304 21.23774401 56.69562596 21.25234985 58.07077026 C21.313539 63.88304823 21.36778013 69.69530398 21.40136719 75.5078125 C21.42252158 79.07461535 21.45798639 82.64104866 21.50212479 86.20763779 C21.52285047 88.20134299 21.52829534 90.1951887 21.53329468 92.18899536 C21.65177443 101.06460495 21.96657403 110.49582204 27.0625 118.0625 C31.11472579 120.73524467 35.30829962 121.87945797 40 123 C40 123.66 40 124.32 40 125 C34.19538947 128.15829239 28.38652128 131.3084233 22.5703125 134.4453125 C18.5305166 136.62456776 14.50422423 138.82479305 10.4921875 141.0546875 C8.84915115 141.95347758 7.2059334 142.85193614 5.5625 143.75 C4.82604248 144.16749512 4.08958496 144.58499023 3.33081055 145.01513672 C-1.5973158 147.67968797 -6.32680376 149.25458433 -12 149 C-19.35114569 145.39377759 -22.29619649 139.82244721 -25.16796875 132.5 C-26.73426745 127.79375038 -27.15827152 123.33407677 -27.31640625 118.38671875 C-27.35830078 117.13955078 -27.40019531 115.89238281 -27.44335938 114.60742188 C-27.48267578 113.31384766 -27.52199219 112.02027344 -27.5625 110.6875 C-27.62727539 108.71813477 -27.62727539 108.71813477 -27.69335938 106.70898438 C-27.79927227 103.47275712 -27.90134885 100.23645542 -28 97 C-34.5348337 106.66673556 -40.87165917 116.44618161 -47.08837891 126.32080078 C-53.4718782 136.42482262 -58.75626369 144.72236908 -70.8125 148.375 C-82.56878892 150.66948697 -95.26050253 149.43454767 -105.375 142.8125 C-114.12746946 136.10788397 -119.34275792 126.92841713 -121 116 C-122.13070604 97.16725685 -118.06369678 82.53367496 -105.56640625 68.2109375 C-91.36044476 54.24282316 -71.73107358 47.26444482 -52.0625 46.6875 C-44.217562 46.81301901 -36.42978253 48.52340582 -29 51 C-32.74130838 40.26024417 -37.55806391 32.24602869 -48 27 C-53.1941783 25.18172731 -57.81402097 24.64426417 -63.25 24.6875 C-64.36870483 24.69595947 -64.36870483 24.69595947 -65.51000977 24.70458984 C-76.90065208 24.95320246 -87.1747883 28.20320397 -95.40234375 36.390625 C-97.33354198 38.54922267 -99.19706478 40.73374065 -101 43 C-104.72702758 39.70849025 -106.88583903 35.89567394 -109.1875 31.5625 C-112.77925511 24.96313174 -116.73286622 18.84144129 -121.15234375 12.76953125 C-122.85457294 10.21798686 -123.99260188 7.88506162 -125 5 C-93.34866574 -29.86648108 -35.61790684 -28.93151278 0 0 Z M-56 61 C-57.299375 61.8353125 -57.299375 61.8353125 -58.625 62.6875 C-65.54457559 69.4249815 -70.9082185 77.77079227 -71.4375 87.5625 C-71.2548244 92.37018979 -69.85516698 95.14166625 -67 99 C-61.59632905 102.95390557 -56.51967898 103.69529807 -50 103 C-42.20651868 101.08516969 -36.37364723 96.87546642 -31 91 C-29.89591797 89.82824219 -29.89591797 89.82824219 -28.76953125 88.6328125 C-25.45925532 83.46884715 -26.47052508 76.624527 -26.5625 70.75 C-26.55541016 69.45835937 -26.54832031 68.16671875 -26.54101562 66.8359375 C-26.53532798 61.90009314 -26.53532798 61.90009314 -27 57 C-36.38709979 50.74193347 -47.46648049 55.46428375 -56 61 Z " fill="#FF3B67" transform="translate(615,94)"/>
<path d="M0 0 C0.99 0.495 0.99 0.495 2 1 C2.33 12.22 2.66 23.44 3 35 C5.31 30.38 7.62 25.76 10 21 C16.37273839 11.91101247 24.12667349 4.31728605 35 1 C46.09303213 -0.71660705 55.34429353 0.07227612 65 6 C65.99 6.99 65.99 6.99 67 8 C66.63411952 15.45146822 64.42956747 22.62181857 62.5625 29.8125 C60.39817252 38.17082036 58.39544769 46.47565849 57 55 C53.45250693 55 52.99477914 54.40299223 50.375 52.1875 C41.98828029 45.63875386 31.39226099 44.20701623 21 45 C15.73478756 46.07985262 10.21033967 47.55517664 6 51 C2.82707315 56.04559997 2.56871207 60.09602834 2.61181641 65.86010742 C2.60655945 66.73088928 2.60130249 67.60167114 2.59588623 68.49884033 C2.58272041 71.36790088 2.5914161 74.23640285 2.6015625 77.10546875 C2.59953987 79.11078497 2.59662686 81.11610047 2.59286499 83.12141418 C2.58844548 87.32360845 2.59485736 91.52561123 2.60888672 95.7277832 C2.62592304 101.08956115 2.61617025 106.4508867 2.59816933 111.81264782 C2.58727421 115.95560548 2.59080494 120.09845782 2.5985527 124.24141884 C2.60054179 126.21679044 2.59814129 128.19217187 2.59111404 130.16753197 C2.55336177 143.76976549 3.09575471 153.91757075 10 166 C-11.45 166 -32.9 166 -55 166 C-53.35 162.7 -51.7 159.4 -50 156 C-48.19795447 149.70210655 -47.70607609 143.95415745 -47.7253418 137.43212891 C-47.72023087 136.52189468 -47.71511993 135.61166046 -47.70985413 134.67384338 C-47.69605494 131.69134787 -47.6969076 128.70908597 -47.69921875 125.7265625 C-47.69532649 123.63585323 -47.69099073 121.54514474 -47.68623352 119.45443726 C-47.67879207 115.0819034 -47.6790475 110.70945031 -47.68432617 106.33691406 C-47.69011767 100.75665412 -47.67318721 95.17672643 -47.6499815 89.59652138 C-47.63519048 85.2811594 -47.63437976 80.96587646 -47.63749123 76.65049362 C-47.6369807 74.59417437 -47.63179393 72.53785038 -47.62167931 70.48155594 C-47.32711717 51.24080665 -47.32711717 51.24080665 -55 34 C-59.17658306 30.68789673 -63.88787052 29.25195008 -69 28 C-69 27.34 -69 26.68 -69 26 C-67.21722656 25.70609375 -67.21722656 25.70609375 -65.3984375 25.40625 C-43.11818543 21.48474366 -20.75419464 13.46031722 -1.78515625 0.93359375 C-1.19605469 0.62550781 -0.60695313 0.31742187 0 0 Z " fill="#FF456A" transform="translate(707,73)"/>
<path d="M0 0 C0.00238835 0.7170813 0.00477671 1.4341626 0.00723743 2.17297363 C0.06658367 19.68691637 0.14225758 37.20071411 0.23571491 54.71450806 C0.28052513 63.18433379 0.3199731 71.65411886 0.34643555 80.12402344 C0.36953609 87.51339507 0.40306651 94.90263641 0.44870156 102.29190445 C0.47247269 106.19812141 0.4913062 110.10421062 0.49761391 114.01049805 C0.50373875 117.70090536 0.52399838 121.39098651 0.55427551 125.08127213 C0.56701312 127.05339997 0.56550624 129.0256045 0.5632782 130.99777222 C0.69403573 143.68755473 2.2684448 154.5368896 8 166 C-13.12 166 -34.24 166 -56 166 C-54.35 162.37 -52.7 158.74 -51 155 C-49.33500432 148.44396683 -48.70708408 142.40730185 -48.74121094 135.66992188 C-48.7377063 134.79694962 -48.73420166 133.92397736 -48.73059082 133.02455139 C-48.72187275 130.17253386 -48.72758727 127.32076954 -48.734375 124.46875 C-48.7330255 122.46675571 -48.73108259 120.46476173 -48.72857666 118.46276855 C-48.72563883 114.28032287 -48.72987975 110.097963 -48.73925781 105.91552734 C-48.75065148 100.57627276 -48.74408481 95.23721932 -48.73211288 89.89797211 C-48.72485799 85.76794949 -48.72719884 81.63797392 -48.73236847 77.50794983 C-48.73369494 75.54012528 -48.73209272 73.57229635 -48.72740936 71.60447693 C-48.72228415 68.8462302 -48.73013776 66.08830141 -48.74121094 63.33007812 C-48.73716248 62.53082413 -48.73311401 61.73157013 -48.72894287 60.90809631 C-48.80425601 50.69233944 -50.4773539 40.84569225 -57.625 33.1875 C-61.5462215 30.19605267 -66.27786607 29.1478705 -71 28 C-71 27.34 -71 26.68 -71 26 C-70.01644531 25.86464844 -69.03289063 25.72929688 -68.01953125 25.58984375 C-45.09244773 22.14867782 -23.37904116 13.29335785 -3.52734375 1.46875 C-1 0 -1 0 0 0 Z " fill="#FF506D" transform="translate(844,73)"/>
<path d="M0 0 C6.62330475 5.15908539 11.38822911 11.67251707 13 20 C13.75681408 29.85098977 13.02872399 37.94129881 7.48828125 46.2734375 C6.99714844 46.84320313 6.50601563 47.41296875 6 48 C5.34 48 4.68 48 4 48 C4 48.66 4 49.32 4 50 C-4.89395251 56.4683291 -13.02568755 59.10851641 -24 58 C-32.43199321 55.86777183 -40.06771592 51.34407247 -44.875 44 C-49.84032547 35.66658663 -50.61641241 25.67859021 -48.34765625 16.3046875 C-45.24645192 8.66481075 -39.31437119 1.79784658 -32 -2 C-21.12475925 -6.18949885 -10.22787402 -5.88569202 0 0 Z " fill="#FF466A" transform="translate(839,5)"/>
</svg>
