<?xml version="1.0" encoding="UTF-8"?>
<svg version="1.1" xmlns="http://www.w3.org/2000/svg" width="287" height="270">
<path d="M0 0 C1.20527344 -0.00515625 2.41054687 -0.0103125 3.65234375 -0.015625 C4.90917969 -0.00015625 6.16601562 0.0153125 7.4609375 0.03125 C9.31138672 0.00804688 9.31138672 0.00804688 11.19921875 -0.015625 C22.80734963 0.03371881 31.06524621 2.98480104 39.8359375 10.53125 C40.7640625 11.28341797 40.7640625 11.28341797 41.7109375 12.05078125 C49.85435393 19.26402296 52.21873706 30.27714515 55.22509766 40.36303711 C56.02224763 43.71808761 56.02224763 43.71808761 57.8359375 46.53125 C60.44852795 46.62018034 63.03432907 46.64335444 65.64698792 46.62458801 C66.47524249 46.62262017 67.30349707 46.62065234 68.15685028 46.61862487 C70.95429383 46.61085699 73.75165715 46.5959942 76.54907227 46.58129883 C78.54606469 46.57447376 80.54305886 46.56814264 82.54005432 46.56227112 C86.85242053 46.54890579 91.16476458 46.53275765 95.47711372 46.51471901 C102.29698029 46.48695649 109.11684649 46.46989897 115.93675232 46.45524597 C118.26955893 46.45010149 120.60236552 46.44494487 122.93517208 46.43977642 C124.68802999 46.43589808 124.68802999 46.43589808 126.47629917 46.43194139 C142.36063819 46.39586783 158.24490716 46.35059332 174.12915039 46.28442383 C184.83315154 46.23991975 195.53709137 46.20966693 206.24117702 46.19556636 C211.90778941 46.18749194 217.57416796 46.17197404 223.24069405 46.13889503 C228.57501895 46.10781439 233.9090629 46.09537058 239.24347496 46.09711266 C241.19939502 46.09441904 243.15531973 46.08487001 245.11116791 46.06788635 C247.78646298 46.04566703 250.4606533 46.04831458 253.13600159 46.05696106 C254.29065449 46.03846083 254.29065449 46.03846083 255.46863371 46.01958686 C261.74893192 46.08315334 267.03357724 47.96241976 271.7109375 52.25 C276.06623426 59.14588654 275.60872749 66.22157278 274.20254517 74.0635376 C273.30534416 77.97355256 272.31918576 81.84899107 271.29296875 85.7265625 C270.92259574 87.1681373 270.55345576 88.61002939 270.18547058 90.05221558 C269.21873622 93.82644335 268.23461691 97.59592208 267.24682617 101.36468506 C266.2593061 105.14645179 265.28992857 108.93286073 264.31835938 112.71875 C262.18949795 120.99808373 260.02002619 129.26633641 257.8359375 137.53125 C257.56342163 138.56973083 257.29090576 139.60821167 257.01013184 140.67816162 C256.33686108 143.23573486 255.65377346 145.79035807 254.96484375 148.34375 C254.78427933 149.03163605 254.6037149 149.71952209 254.41767883 150.42825317 C252.48616158 157.45262592 249.37753383 162.20506443 243.1484375 165.96875 C238.76279434 168.0374496 235.73549644 168.66060887 230.93244934 168.68946838 C229.08356361 168.70415161 229.08356361 168.70415161 227.19732666 168.71913147 C225.82922402 168.72503563 224.46112097 168.73084608 223.09301758 168.73657227 C221.65416686 168.74615117 220.21531895 168.75616126 218.776474 168.76657104 C214.86770339 168.79362488 210.9589207 168.81463185 207.05010819 168.83457303 C202.96613754 168.85642962 198.88220415 168.88381991 194.79826355 168.91062927 C187.06353658 168.96056058 179.32878893 169.00549779 171.5940215 169.04865164 C162.78877446 169.09802027 153.9835648 169.15293979 145.17835391 169.20833123 C127.06424981 169.32215799 108.95011044 169.42899553 90.8359375 169.53125 C91.27678625 170.97263867 91.7280347 172.41084907 92.18359375 173.84765625 C92.43375244 174.64888916 92.68391113 175.45012207 92.94165039 176.27563477 C94.48513115 180.16867837 97.14609407 182.50333247 100.66526318 184.6440134 C103.29027869 185.71695641 105.29466163 185.78456038 108.12922668 185.78953552 C109.20162094 185.79636353 110.2740152 185.80319153 111.37890625 185.81022644 C112.55042236 185.80767349 113.72193848 185.80512054 114.92895508 185.80249023 C116.16675217 185.80771698 117.40454926 185.81294373 118.67985535 185.81832886 C121.36998369 185.82857699 124.0598568 185.8352876 126.74997902 185.83621025 C131.0075202 185.8381533 135.26489913 185.85622018 139.52238464 185.87696838 C150.09904526 185.92612832 160.67574998 185.95701619 171.25250244 185.97827148 C179.46967272 185.99481147 187.6867039 186.01767813 195.90378112 186.06129223 C200.1318572 186.08302156 204.35966876 186.09113082 208.58779681 186.08889949 C211.84350026 186.09096449 215.09908968 186.11233657 218.35473633 186.13061523 C219.52017975 186.12603806 220.68562317 186.12146088 221.88638306 186.116745 C228.70383555 186.17759838 234.62830896 186.32362146 239.7109375 191.40625 C241.05329704 193.94181803 241.69863221 195.64783897 241.8359375 198.53125 C240.24698652 202.71269994 238.7177026 205.29657716 234.8359375 207.53125 C232.20287773 207.91830537 229.79185959 208.13082721 227.14819336 208.21044922 C225.97171061 208.2600797 225.97171061 208.2600797 224.77146053 208.31071281 C213.80014912 208.72157366 202.81694167 208.6752151 191.83984375 208.6640625 C189.47053518 208.66473798 187.10122667 208.66571004 184.73191833 208.66696167 C179.80117117 208.66842513 174.87044228 208.66632662 169.93969727 208.66162109 C163.64348949 208.65590256 157.34732415 208.65922482 151.0511179 208.66519356 C146.17219221 208.6688171 141.2932765 208.66765272 136.41435051 208.66506577 C134.09288465 208.6644026 131.77141786 208.66520339 129.44995308 208.66754532 C126.20432271 208.67010389 122.95876012 208.66618735 119.71313477 208.66064453 C118.77108185 208.66266876 117.82902893 208.66469299 116.85842896 208.66677856 C101.75219774 208.61933464 90.28317805 206.80394569 79.14453125 195.87109375 C72.58154234 188.65016109 69.96026747 180.27890202 67.515625 171.01953125 C67.21545975 169.91041885 66.91529449 168.80130646 66.60603333 167.65858459 C65.63297826 164.0557459 64.67190162 160.44983051 63.7109375 156.84375 C63.03701166 154.33979174 62.36228244 151.83604957 61.68676758 149.33251953 C60.34446329 144.3529197 59.00668227 139.37214359 57.67333984 134.39013672 C56.11858733 128.58170461 54.55389201 122.77605584 52.98046875 116.97265625 C52.76952576 116.19429916 52.55858276 115.41594208 52.34124756 114.61399841 C51.9331577 113.10822704 51.52503689 111.60246404 51.11688232 110.09671021 C48.69021927 101.13967051 46.27452343 92.17974408 43.8809967 83.21379089 C38.15262375 50.94582257 38.15262375 50.94582257 21.85546875 25.21875 C14.66383588 21.33283956 7.47481247 21.31352725 -0.5703125 21.0078125 C-4.29142729 20.51436032 -6.2202158 19.81259762 -9.1640625 17.53125 C-11.36471346 13.76884675 -12.3666472 11.67922998 -11.6015625 7.34375 C-8.74674964 1.75824659 -6.29013615 0.0260731 0 0 Z M118.8359375 75.53125 C117.07290059 80.82036074 117.16114883 85.76394634 119.1484375 90.96875 C120.74095314 93.74946686 120.74095314 93.74946686 123.8359375 95.53125 C127.69073835 96.04522345 129.58116192 95.65863779 133.0859375 93.90625 C136.33788032 91.09775393 137.1198409 89.7482633 137.8359375 85.53125 C137.81747778 80.30714869 137.31751406 75.63453666 133.8359375 71.53125 C126.76140824 67.62164172 123.38239549 69.09043451 118.8359375 75.53125 Z M192.8359375 72.53125 C190.68322705 75.7969264 190.5380425 78.60816197 190.5234375 82.46875 C190.50667969 83.48839844 190.48992187 84.50804688 190.47265625 85.55859375 C190.88884662 88.96419454 191.80100916 90.79100692 193.8359375 93.53125 C197.58641232 96.03156654 199.39450016 96.06728554 203.8359375 95.53125 C207.0395385 92.884797 209.59264534 90.67700709 210.07421875 86.4296875 C210.24860306 80.500621 209.92218309 75.15673621 205.8359375 70.53125 C200.62984403 68.69947637 197.35969187 69.48034589 192.8359375 72.53125 Z M131.8359375 120.53125 C135.11382247 128.72596242 140.61945016 134.65630347 148.55078125 138.6015625 C159.98646423 143.25402839 170.52683126 142.14078444 181.8359375 137.53125 C187.62936561 134.34203387 192.80670209 129.47564919 195.8359375 123.53125 C195.3409375 122.04625 195.3409375 122.04625 194.8359375 120.53125 C174.0459375 120.53125 153.2559375 120.53125 131.8359375 120.53125 Z " fill="#EF6D2F" transform="translate(12.1640625,-0.53125)"/>
<path d="M0 0 C5.2301103 0.64618975 10.45862289 1.30377027 15.68603516 1.97143555 C17.46039036 2.19649222 19.23512735 2.41856166 21.01025391 2.63745117 C46.22947587 5.75259986 65.71671352 15.24658968 86.125 30.125 C98.11964045 38.85985627 110.14088954 46.58607507 125.41015625 46.29296875 C126.68952309 46.28660149 126.68952309 46.28660149 127.99473572 46.28010559 C130.6843295 46.2634863 133.37313769 46.22586775 136.0625 46.1875 C137.9003797 46.17243143 139.73827131 46.15874686 141.57617188 46.14648438 C146.05107796 46.11363805 150.5254064 46.06197498 155 46 C155.20973442 51.37069921 154.40167676 53.74790405 151 58 C150.278125 58.53625 149.55625 59.0725 148.8125 59.625 C146.79872375 60.84146113 146.79872375 60.84146113 146.5625 63.0625 C146.376875 63.701875 146.19125 64.34125 146 65 C143.5 66.125 143.5 66.125 141 67 C140.67 67.66 140.34 68.32 140 69 C137.27734375 69.8515625 137.27734375 69.8515625 133.9375 70.625 C132.83277344 70.88539063 131.72804687 71.14578125 130.58984375 71.4140625 C129.30787109 71.70410156 129.30787109 71.70410156 128 72 C138.04367758 72.36497886 147.29507684 71.67280968 157.15234375 69.71484375 C160.30049341 69.12995909 163.25067446 68.78957785 166.4375 68.625 C172.80606737 68.1033426 178.01877804 64.85212129 183.3515625 61.5390625 C185.90964688 60.05250609 188.52302003 58.8245842 191.21508789 57.60253906 C197.54283261 54.68242745 201.11957819 52.512258 204 46 C205.65071396 44.97388051 207.31970006 43.97691857 209 43 C210.87233416 41.04500208 212.61422609 39.0128702 214.3515625 36.9375 C215.83964861 35.18846988 217.27916723 33.52117814 219 32 C219.66 32 220.32 32 221 32 C221.17757555 38.17416539 220.71425388 43.47293834 219.171875 49.4375 C218.98159729 50.20247803 218.79131958 50.96745605 218.59527588 51.75561523 C218.1934801 53.36017892 217.7864952 54.96345151 217.37451172 56.56542969 C216.75236049 58.99079795 216.15043213 61.42054541 215.55078125 63.8515625 C209.55602542 87.77763811 209.55602542 87.77763811 201.26368809 93.11825943 C194.18768436 96.64448485 187.34115782 96.57726636 179.57592773 96.54589844 C178.13618358 96.55464694 176.69644912 96.56513716 175.25672913 96.57722473 C171.37301017 96.60494943 167.48961058 96.60849244 163.60580707 96.60750484 C159.53783793 96.61064566 155.47001017 96.63628807 151.40211487 96.65948486 C143.71006831 96.69995922 136.01810635 96.72036536 128.32596976 96.73345876 C119.56406251 96.74935791 110.80229863 96.78778574 102.04047477 96.82805204 C84.02702858 96.91033368 66.0135961 96.964499 48 97 C48.44084875 98.44138867 48.8920972 99.87959907 49.34765625 101.31640625 C49.59781494 102.11763916 49.84797363 102.91887207 50.10571289 103.74438477 C51.64919365 107.63742837 54.31015657 109.97208247 57.82932568 112.1127634 C60.45434119 113.18570641 62.45872413 113.25331038 65.29328918 113.25828552 C66.36568344 113.26511353 67.4380777 113.27194153 68.54296875 113.27897644 C69.71448486 113.27642349 70.88600098 113.27387054 72.09301758 113.27124023 C73.33081467 113.27646698 74.56861176 113.28169373 75.84391785 113.28707886 C78.53404619 113.29732699 81.2239193 113.3040376 83.91404152 113.30496025 C88.1715827 113.3069033 92.42896163 113.32497018 96.68644714 113.34571838 C107.26310776 113.39487832 117.83981248 113.42576619 128.41656494 113.44702148 C136.63373522 113.46356147 144.8507664 113.48642813 153.06784362 113.53004223 C157.2959197 113.55177156 161.52373126 113.55988082 165.75185931 113.55764949 C169.00756276 113.55971449 172.26315218 113.58108657 175.51879883 113.59936523 C176.68424225 113.59478806 177.84968567 113.59021088 179.05044556 113.585495 C185.86789805 113.64634838 191.79237146 113.79237146 196.875 118.875 C198.21735954 121.41056803 198.86269471 123.11658897 199 126 C197.41104902 130.18144994 195.8817651 132.76532716 192 135 C189.36694023 135.38705537 186.95592209 135.59957721 184.31225586 135.67919922 C183.13577311 135.7288297 183.13577311 135.7288297 181.93552303 135.77946281 C170.96421162 136.19032366 159.98100417 136.1439651 149.00390625 136.1328125 C146.63459768 136.13348798 144.26528917 136.13446004 141.89598083 136.13571167 C136.96523367 136.13717513 132.03450478 136.13507662 127.10375977 136.13037109 C120.80755199 136.12465256 114.51138665 136.12797482 108.2151804 136.13394356 C103.33625471 136.1375671 98.457339 136.13640272 93.57841301 136.13381577 C91.25694715 136.1331526 88.93548036 136.13395339 86.61401558 136.13629532 C83.36838521 136.13885389 80.12282262 136.13493735 76.87719727 136.12939453 C75.93514435 136.13141876 74.99309143 136.13344299 74.02249146 136.13552856 C58.91626024 136.08808464 47.44724055 134.27269569 36.30859375 123.33984375 C29.74558718 116.11889166 27.12438274 107.74765041 24.6796875 98.48828125 C24.37920502 97.37817184 24.07872253 96.26806244 23.76913452 95.12431335 C22.79624589 91.52252044 21.83540787 87.91763894 20.875 84.3125 C20.20614191 81.82467119 19.53654085 79.33704201 18.86621094 76.84960938 C17.52957385 71.88597966 16.19733142 66.92120124 14.86816406 61.95556641 C13.23269682 55.85382284 11.57241907 49.75924249 9.8984375 43.66796875 C9.22384745 41.20559594 8.54964333 38.74311778 7.87554932 36.28060913 C7.46628866 34.78853878 7.0556582 33.29684331 6.64349365 31.80557251 C0 7.73736771 0 7.73736771 0 0 Z M89 48 C92.27788497 56.19471242 97.78351266 62.12505347 105.71484375 66.0703125 C117.15052673 70.72277839 127.69089376 69.60953444 139 65 C144.79342811 61.81078387 149.97076459 56.94439919 153 51 C152.505 49.515 152.505 49.515 152 48 C131.21 48 110.42 48 89 48 Z " fill="#BD2666" transform="translate(55,72)"/>
<path d="M0 0 C1.20527344 -0.00515625 2.41054687 -0.0103125 3.65234375 -0.015625 C4.90917969 -0.00015625 6.16601562 0.0153125 7.4609375 0.03125 C9.31138672 0.00804688 9.31138672 0.00804688 11.19921875 -0.015625 C22.80734963 0.03371881 31.06524621 2.98480104 39.8359375 10.53125 C40.7640625 11.28341797 40.7640625 11.28341797 41.7109375 12.05078125 C49.85435393 19.26402296 52.21873706 30.27714515 55.22509766 40.36303711 C56.02224763 43.71808761 56.02224763 43.71808761 57.8359375 46.53125 C60.44852795 46.62018034 63.03432907 46.64335444 65.64698792 46.62458801 C66.47524249 46.62262017 67.30349707 46.62065234 68.15685028 46.61862487 C70.95429383 46.61085699 73.75165715 46.5959942 76.54907227 46.58129883 C78.54606469 46.57447376 80.54305886 46.56814264 82.54005432 46.56227112 C86.85242053 46.54890579 91.16476458 46.53275765 95.47711372 46.51471901 C102.29698029 46.48695649 109.11684649 46.46989897 115.93675232 46.45524597 C118.26955893 46.45010149 120.60236552 46.44494487 122.93517208 46.43977642 C124.68802999 46.43589808 124.68802999 46.43589808 126.47629917 46.43194139 C142.36063819 46.39586783 158.24490716 46.35059332 174.12915039 46.28442383 C184.83315154 46.23991975 195.53709137 46.20966693 206.24117702 46.19556636 C211.90778941 46.18749194 217.57416796 46.17197404 223.24069405 46.13889503 C228.57501895 46.10781439 233.9090629 46.09537058 239.24347496 46.09711266 C241.19939502 46.09441904 243.15531973 46.08487001 245.11116791 46.06788635 C247.78646298 46.04566703 250.4606533 46.04831458 253.13600159 46.05696106 C254.29065449 46.03846083 254.29065449 46.03846083 255.46863371 46.01958686 C261.74893192 46.08315334 267.03357724 47.96241976 271.7109375 52.25 C276.03962315 59.10375228 275.80993146 65.97672142 274.1484375 73.74609375 C273.446123 76.36964361 272.68855658 78.9530923 271.8359375 81.53125 C270.7667835 77.98574666 271.11781955 75.26853545 271.6328125 71.609375 C272.21067531 65.69739396 270.46817844 60.69449185 267.8359375 55.53125 C266.8459375 54.87125 265.8559375 54.21125 264.8359375 53.53125 C264.8359375 52.87125 264.8359375 52.21125 264.8359375 51.53125 C259.80058367 53.41293755 254.97281521 55.35641611 250.3359375 58.09375 C246.47201134 60.32608897 242.70133964 61.64021982 238.390625 62.7578125 C235.73130236 63.56292853 233.25832275 64.64123185 230.71826172 65.75976562 C228.80214338 66.54510077 226.88780415 67.17755363 224.90625 67.77734375 C224.2565625 67.97521484 223.606875 68.17308594 222.9375 68.37695312 C221.59931815 68.77761429 220.25801094 69.16795724 218.9140625 69.54882812 C215.28419147 70.55115695 215.28419147 70.55115695 212.89453125 73.23828125 C212.87519531 73.99496094 212.85585937 74.75164062 212.8359375 75.53125 C212.80371094 76.67078125 212.77148438 77.8103125 212.73828125 78.984375 C212.74988281 80.23734375 212.76148438 81.4903125 212.7734375 82.78125 C212.78246094 84.04453125 212.79148438 85.3078125 212.80078125 86.609375 C212.81238281 87.57359375 212.82398438 88.5378125 212.8359375 89.53125 C212.1965625 89.82 211.5571875 90.10875 210.8984375 90.40625 C208.68387671 91.35948451 208.68387671 91.35948451 207.8359375 93.53125 C206.8359375 95.53125 206.8359375 95.53125 205.0859375 96.78125 C202.10042586 97.77642055 199.96936965 97.91493557 196.8359375 97.53125 C193.05169962 95.15510063 190.57703787 92.65490878 188.8359375 88.53125 C188.39214098 84.02873254 188.61031914 79.89010239 189.8359375 75.53125 C189.01988037 75.69351074 188.20382324 75.85577148 187.36303711 76.02294922 C183.3578203 76.60015289 179.43815925 76.67486286 175.40234375 76.6640625 C174.20810036 76.66549759 174.20810036 76.66549759 172.98973083 76.66696167 C171.31305868 76.66763934 169.63638385 76.66581397 167.9597168 76.66162109 C165.40993276 76.65627411 162.86032543 76.66157648 160.31054688 76.66796875 C158.67447878 76.66730776 157.0384108 76.66602616 155.40234375 76.6640625 C154.64796524 76.66608673 153.89358673 76.66811096 153.11634827 76.67019653 C148.59045909 76.65040618 144.3022338 76.27201593 139.8359375 75.53125 C139.99191406 76.09972656 140.14789063 76.66820313 140.30859375 77.25390625 C141.58780528 82.32839438 142.22820327 86.35997714 140.8359375 91.53125 C139.01254698 94.23692626 137.76136314 96.06853718 134.8359375 97.53125 C133.00659185 97.67804934 131.17093507 97.75227635 129.3359375 97.78125 C128.35625 97.80703125 127.3765625 97.8328125 126.3671875 97.859375 C125.531875 97.75109375 124.6965625 97.6428125 123.8359375 97.53125 C123.1759375 96.54125 122.5159375 95.55125 121.8359375 94.53125 C123.0528125 94.593125 124.2696875 94.655 125.5234375 94.71875 C129.44564442 94.69792412 131.80501473 94.20559362 134.8359375 91.53125 C137.45092736 86.53899664 136.98752389 81.87579195 135.8359375 76.53125 C135.0595443 73.4567144 135.0595443 73.4567144 132.8359375 71.53125 C129.80279548 70.61037197 126.99701502 70.30871927 123.8359375 70.53125 C121.29637144 71.78149533 121.29637144 71.78149533 119.8359375 73.53125 C120.1659375 72.54125 120.4959375 71.55125 120.8359375 70.53125 C120.04977051 70.50764404 119.26360352 70.48403809 118.45361328 70.4597168 C109.93674708 70.02901788 102.69847815 68.25220491 94.7109375 65.34375 C93.62167969 64.96927734 92.53242187 64.59480469 91.41015625 64.20898438 C84.99016184 61.93475696 79.08358627 59.23887841 73.17407227 55.8515625 C68.90948934 53.44341126 64.61056813 51.65529911 59.8359375 50.53125 C60.04089844 51.16289063 60.24585937 51.79453125 60.45703125 52.4453125 C62.77006912 60.12592628 63.49741893 67.5352078 63.8359375 75.53125 C60.71028088 75.22510143 57.58556127 74.91025284 54.4609375 74.59375 C53.57148437 74.50673828 52.68203125 74.41972656 51.765625 74.33007812 C50.91484375 74.24306641 50.0640625 74.15605469 49.1875 74.06640625 C48.00921631 73.94857788 48.00921631 73.94857788 46.80712891 73.82836914 C44.8359375 73.53125 44.8359375 73.53125 42.8359375 72.53125 C43.3309375 73.8615625 43.3309375 73.8615625 43.8359375 75.21875 C44.74815893 78.24048347 45.01924708 80.41498706 44.8359375 83.53125 C43.02463649 80.24376104 42.03699786 76.97900082 41.06640625 73.359375 C40.73753418 72.14467529 40.40866211 70.92997559 40.06982422 69.6784668 C39.81359283 68.72271255 39.81359283 68.72271255 39.55218506 67.74765015 C38.66666002 64.45440267 37.7600609 61.16695747 36.85546875 57.87890625 C36.50693848 56.61062988 36.1584082 55.34235352 35.79931641 54.03564453 C35.32244385 52.30096924 35.32244385 52.30096924 34.8359375 50.53125 C34.58376465 49.60812012 34.3315918 48.68499023 34.07177734 47.73388672 C30.67555361 34.78352491 30.67555361 34.78352491 21.8515625 25.20703125 C14.64713017 21.34751393 7.47872675 21.31367599 -0.5703125 21.0078125 C-4.29142729 20.51436032 -6.2202158 19.81259762 -9.1640625 17.53125 C-11.36471346 13.76884675 -12.3666472 11.67922998 -11.6015625 7.34375 C-8.74674964 1.75824659 -6.29013615 0.0260731 0 0 Z M192.8359375 72.53125 C190.68322705 75.7969264 190.5380425 78.60816197 190.5234375 82.46875 C190.50667969 83.48839844 190.48992187 84.50804688 190.47265625 85.55859375 C190.88884662 88.96419454 191.80100916 90.79100692 193.8359375 93.53125 C197.58641232 96.03156654 199.39450016 96.06728554 203.8359375 95.53125 C207.0395385 92.884797 209.59264534 90.67700709 210.07421875 86.4296875 C210.24860306 80.500621 209.92218309 75.15673621 205.8359375 70.53125 C200.62984403 68.69947637 197.35969187 69.48034589 192.8359375 72.53125 Z " fill="#F1902B" transform="translate(12.1640625,-0.53125)"/>
<path d="M0 0 C6.93 0.99 13.86 1.98 21 3 C22.44688546 7.34065639 23.43451213 10.93614942 24.125 15.375 C24.29257813 16.43460938 24.46015625 17.49421875 24.6328125 18.5859375 C24.75398438 19.38257812 24.87515625 20.17921875 25 21 C25.99 21.33 26.98 21.66 28 22 C28.08040527 22.54938232 28.16081055 23.09876465 28.24365234 23.66479492 C28.61444691 26.17334447 28.99463528 28.68038446 29.375 31.1875 C29.50132813 32.05181641 29.62765625 32.91613281 29.7578125 33.80664062 C30.42543333 38.16286652 31.24897335 41.93332994 33 46 C33.35516152 47.78370008 33.66695498 49.57651978 33.9375 51.375 C34.72739403 56.02659819 35.96737917 59.7580087 38 64 C39.43935886 68.31807659 39.38625262 72.63712488 39.62109375 77.1640625 C39.80865234 78.56785156 39.80865234 78.56785156 40 80 C40.99 80.495 40.99 80.495 42 81 C42.72170423 83.01609684 43.35324782 85.06486581 43.9375 87.125 C45.36411399 91.95232484 46.8591888 96.45077621 49 101 C49.27328125 101.67804688 49.5465625 102.35609375 49.828125 103.0546875 C50.13234375 103.75851563 50.4365625 104.46234375 50.75 105.1875 C51.01296875 105.82042969 51.2759375 106.45335937 51.546875 107.10546875 C54.43687884 110.8733501 58.0384021 112.72840742 62.66494751 113.36897469 C65.92719519 113.51065741 69.16833365 113.52570054 72.43359375 113.49829102 C73.67182892 113.50380981 74.91006409 113.50932861 76.18582153 113.51501465 C78.86804079 113.52432452 81.54912598 113.52651103 84.23123169 113.51642036 C88.47648072 113.50079606 92.72133113 113.51458101 96.96655273 113.53245544 C105.21219892 113.56321436 113.45772195 113.56477894 121.70341492 113.56280518 C132.19894956 113.5614105 142.69438948 113.5718295 153.18985462 113.6113829 C157.40543428 113.62627533 161.62065784 113.62607767 165.83624268 113.61390507 C169.07965588 113.60807007 172.32300856 113.62123771 175.56640625 113.63110352 C176.72713654 113.62338425 177.88786682 113.61566498 179.08377075 113.60771179 C185.89648501 113.65047648 191.79549486 113.79549486 196.875 118.875 C198.21735954 121.41056803 198.86269471 123.11658897 199 126 C197.41104902 130.18144994 195.8817651 132.76532716 192 135 C189.36694023 135.38705537 186.95592209 135.59957721 184.31225586 135.67919922 C183.13577311 135.7288297 183.13577311 135.7288297 181.93552303 135.77946281 C170.96421162 136.19032366 159.98100417 136.1439651 149.00390625 136.1328125 C146.63459768 136.13348798 144.26528917 136.13446004 141.89598083 136.13571167 C136.96523367 136.13717513 132.03450478 136.13507662 127.10375977 136.13037109 C120.80755199 136.12465256 114.51138665 136.12797482 108.2151804 136.13394356 C103.33625471 136.1375671 98.457339 136.13640272 93.57841301 136.13381577 C91.25694715 136.1331526 88.93548036 136.13395339 86.61401558 136.13629532 C83.36838521 136.13885389 80.12282262 136.13493735 76.87719727 136.12939453 C75.93514435 136.13141876 74.99309143 136.13344299 74.02249146 136.13552856 C58.91626024 136.08808464 47.44724055 134.27269569 36.30859375 123.33984375 C29.74558718 116.11889166 27.12438274 107.74765041 24.6796875 98.48828125 C24.37920502 97.37817184 24.07872253 96.26806244 23.76913452 95.12431335 C22.79624589 91.52252044 21.83540787 87.91763894 20.875 84.3125 C20.20614191 81.82467119 19.53654085 79.33704201 18.86621094 76.84960938 C17.52957385 71.88597966 16.19733142 66.92120124 14.86816406 61.95556641 C13.23269682 55.85382284 11.57241907 49.75924249 9.8984375 43.66796875 C9.22384745 41.20559594 8.54964333 38.74311778 7.87554932 36.28060913 C7.46628866 34.78853878 7.0556582 33.29684331 6.64349365 31.80557251 C0 7.73736771 0 7.73736771 0 0 Z " fill="#373C89" transform="translate(55,72)"/>
<path d="M0 0 C0.17757555 6.17416539 -0.28574612 11.47293834 -1.828125 17.4375 C-2.01840271 18.20247803 -2.20868042 18.96745605 -2.40472412 19.75561523 C-2.8065199 21.36017892 -3.2135048 22.96345151 -3.62548828 24.56542969 C-4.24763951 26.99079795 -4.84956787 29.42054541 -5.44921875 31.8515625 C-11.43797267 55.75368346 -11.43797267 55.75368346 -19.73308468 61.12148666 C-26.84116066 64.67682849 -33.71639824 64.53975685 -41.51586914 64.45410156 C-42.96545378 64.45297142 -44.41504071 64.4536102 -45.86462402 64.45587158 C-49.77532722 64.45701317 -53.68553366 64.43359479 -57.59612203 64.40557575 C-61.69202061 64.38046878 -65.78793221 64.37821281 -69.88389587 64.37347412 C-77.62917731 64.36107153 -85.37423129 64.32828699 -93.11941284 64.28807616 C-101.94167059 64.24327357 -110.76393955 64.22135013 -119.58628285 64.20129442 C-137.72431723 64.15955172 -155.86214029 64.08925288 -174 64 C-174 63.67 -174 63.34 -174 63 C-159.48 62.67 -144.96 62.34 -130 62 C-132.52565835 57.84188612 -132.52565835 57.84188612 -136 57 C-136.69937532 55.68352881 -137.36729133 54.34977849 -138 53 C-138.99 52.505 -138.99 52.505 -140 52 C-140.67100947 50.35910347 -141.26243772 48.68529719 -141.8125 47 C-143.4307325 42.32172636 -145.39429245 38.20450013 -147.94921875 33.97265625 C-149.00870912 31.98365017 -149.55205966 30.20032232 -150 28 C-149.21625 28.45375 -148.4325 28.9075 -147.625 29.375 C-143.78480275 31.09646773 -140.29346391 31.85840169 -136.171875 32.5703125 C-134 33 -134 33 -132 34 C-132 34.66 -132 35.32 -132 36 C-130.948125 35.938125 -129.89625 35.87625 -128.8125 35.8125 C-124.79722982 36.0099723 -123.23860249 36.779244 -120 39 C-119.34 39 -118.68 39 -118 39 C-118.03955898 37.07690578 -118.03955898 37.07690578 -119 35 C-119.99 34.54625 -120.98 34.0925 -122 33.625 C-122.99 33.08875 -123.98 32.5525 -125 32 C-125.875 28.8125 -125.875 28.8125 -126 26 C-125.43152344 26.39832031 -124.86304688 26.79664063 -124.27734375 27.20703125 C-117.80777661 31.64608316 -111.9741579 35.20258421 -104 36 C-103.36707031 36.06445312 -102.73414063 36.12890625 -102.08203125 36.1953125 C-92.65788622 36.7102931 -82.9207616 33.70097312 -75.65625 27.65234375 C-72.97460146 24.97701985 -70.9877245 22.23005231 -69 19 C-69 18.34 -69 17.68 -69 17 C-90.12 17 -111.24 17 -133 17 C-133 16.34 -133 15.68 -133 15 C-110.89 14.67 -88.78 14.34 -66 14 C-66 20.22447215 -66.31875349 21.39844187 -70 26 C-71.0828125 26.804375 -71.0828125 26.804375 -72.1875 27.625 C-74.20127625 28.84146113 -74.20127625 28.84146113 -74.4375 31.0625 C-74.7159375 32.0215625 -74.7159375 32.0215625 -75 33 C-77.5 34.125 -77.5 34.125 -80 35 C-80.495 35.99 -80.495 35.99 -81 37 C-83.72265625 37.8515625 -83.72265625 37.8515625 -87.0625 38.625 C-88.16722656 38.88539063 -89.27195312 39.14578125 -90.41015625 39.4140625 C-91.69212891 39.70410156 -91.69212891 39.70410156 -93 40 C-82.95632242 40.36497886 -73.70492316 39.67280968 -63.84765625 37.71484375 C-60.69950659 37.12995909 -57.74932554 36.78957785 -54.5625 36.625 C-48.19393263 36.1033426 -42.98122196 32.85212129 -37.6484375 29.5390625 C-35.09035312 28.05250609 -32.47697997 26.8245842 -29.78491211 25.60253906 C-23.45716739 22.68242745 -19.88042181 20.512258 -17 14 C-15.34928604 12.97388051 -13.68029994 11.97691857 -12 11 C-10.12766584 9.04500208 -8.38577391 7.0128702 -6.6484375 4.9375 C-2.44758065 0 -2.44758065 0 0 0 Z " fill="#E62771" transform="translate(276,104)"/>
<path d="M0 0 C6.70668936 1.35495552 13.00331293 3.2492452 19.4375 5.5625 C20.33404297 5.87896484 21.23058594 6.19542969 22.15429688 6.52148438 C28.66408279 8.8320414 28.66408279 8.8320414 31 10 C52.11881427 12.89422722 75.66129408 15.36432485 96.762146 11.49327087 C100.02452039 10.99626444 103.07454943 10.87974398 106.37255859 10.88647461 C107.61339203 10.88655014 108.85422546 10.88662567 110.13265991 10.88670349 C111.47125286 10.89180887 112.80984539 10.89702485 114.1484375 10.90234375 C115.52991688 10.90421094 116.91139692 10.90563342 118.2928772 10.90663147 C121.91288103 10.91043298 125.53284417 10.92024284 129.15283203 10.93133545 C132.85318451 10.94160065 136.55354361 10.94614 140.25390625 10.95117188 C147.50262264 10.96186742 154.7513056 10.97891515 162 11 C162.33 12.65 162.66 14.3 163 16 C163.33 14.35 163.66 12.7 164 11 C164.66 11 165.32 11 166 11 C166.33 10.01 166.66 9.02 167 8 C169.27817434 11.59250568 170.09040907 13.34453425 169.5 17.625 C167.77678648 21.50223043 166.5568942 22.74154182 163 25 C160.29044394 25.46193363 157.96671083 25.69049847 155.24975586 25.74169922 C154.08004069 25.78456212 154.08004069 25.78456212 152.88669491 25.82829094 C150.25767819 25.91295894 147.63008829 25.96159675 145 26 C144.07289845 26.01417213 143.14579689 26.02834427 142.19060135 26.04294586 C134.79494654 26.13914624 127.40006128 26.14032691 120.00390625 26.1328125 C117.63459768 26.13348798 115.26528917 26.13446004 112.89598083 26.13571167 C107.96523367 26.13717513 103.03450478 26.13507662 98.10375977 26.13037109 C91.80755199 26.12465256 85.51138665 26.12797482 79.2151804 26.13394356 C74.33625471 26.1375671 69.457339 26.13640272 64.57841301 26.13381577 C62.25694715 26.1331526 59.93548036 26.13395339 57.61401558 26.13629532 C54.36838521 26.13885389 51.12282262 26.13493735 47.87719727 26.12939453 C46.93514435 26.13141876 45.99309143 26.13344299 45.02249146 26.13552856 C29.96017323 26.08822255 18.29889107 24.31992929 7.2734375 13.26953125 C0 5.15409483 0 5.15409483 0 0 Z " fill="#37549B" transform="translate(84,182)"/>
<path d="M0 0 C0.94083074 3.02801968 1.00118356 5.10743286 0.36328125 8.203125 C0.19989258 9.01168945 0.03650391 9.82025391 -0.13183594 10.65332031 C-0.31520508 11.51022461 -0.49857422 12.36712891 -0.6875 13.25 C-0.86958008 14.13010742 -1.05166016 15.01021484 -1.23925781 15.91699219 C-2.93879472 24.00072435 -4.90241948 32.01134227 -7 40 C-7.33 40 -7.66 40 -8 40 C-8 38.35 -8 36.7 -8 35 C-12.67596459 38.90454911 -16.91495001 42.81108225 -20.67578125 47.6171875 C-22 49 -22 49 -25 50 C-25.54527344 51.08796875 -26.09054687 52.1759375 -26.65234375 53.296875 C-29.16324864 57.97243542 -32.80204092 59.32171278 -37.5625 61.25 C-39.08712809 61.89518267 -40.60937418 62.54603005 -42.12890625 63.203125 C-42.79994385 63.47801758 -43.47098145 63.75291016 -44.16235352 64.03613281 C-46.06444653 64.91520679 -46.06444653 64.91520679 -47.46386719 66.48217773 C-53.284092 72.23302605 -63.11073796 72.87072237 -70.8125 73.6875 C-72.81915972 73.91928392 -74.82567611 74.1523129 -76.83203125 74.38671875 C-78.14264526 74.52920044 -78.14264526 74.52920044 -79.47973633 74.67456055 C-82.0217913 74.97104912 -82.0217913 74.97104912 -84.58740234 75.53222656 C-87.99072034 76.19208866 -91.36178526 76.10542755 -94.8125 76.0625 C-95.50537109 76.05798828 -96.19824219 76.05347656 -96.91210938 76.04882812 C-98.60811068 76.03713156 -100.30406703 76.01919924 -102 76 C-99.58374048 73.08464426 -97.76251131 72.53413697 -94.0625 72 C-90.13947593 71.43196032 -88.09101035 70.45678577 -85 68 C-84.34 68 -83.68 68 -83 68 C-82.938125 67.2575 -82.87625 66.515 -82.8125 65.75 C-81.75133617 62.15836857 -79.93833662 61.22166915 -77 59 C-74.91366167 55.87049251 -74.50350579 52.69237581 -74 49 C-72.2365625 48.7525 -72.2365625 48.7525 -70.4375 48.5 C-52.98238633 44.59665175 -37.72716042 30.51545545 -24.6875 19.11328125 C-16.78347866 12.214903 -8.64800472 5.94057467 0 0 Z " fill="#EA2C3F" transform="translate(284,69)"/>
<path d="M0 0 C1.20527344 -0.00515625 2.41054687 -0.0103125 3.65234375 -0.015625 C4.90917969 -0.00015625 6.16601562 0.0153125 7.4609375 0.03125 C9.31138672 0.00804688 9.31138672 0.00804688 11.19921875 -0.015625 C22.80734963 0.03371881 31.06524621 2.98480104 39.8359375 10.53125 C40.7640625 11.28341797 40.7640625 11.28341797 41.7109375 12.05078125 C51.57422896 20.78744674 54.71562509 36.55301281 57.26953125 49.0234375 C58.30834507 53.62287522 59.64930852 58.15130765 60.93359375 62.6875 C61.93758308 66.96423377 62.44999278 71.16263097 62.8359375 75.53125 C59.87705077 75.22340623 56.91890583 74.91019426 53.9609375 74.59375 C53.11917969 74.50673828 52.27742188 74.41972656 51.41015625 74.33007812 C50.60449219 74.24306641 49.79882812 74.15605469 48.96875 74.06640625 C48.22512207 73.987854 47.48149414 73.90930176 46.71533203 73.82836914 C44.8359375 73.53125 44.8359375 73.53125 42.8359375 72.53125 C43.3309375 73.8615625 43.3309375 73.8615625 43.8359375 75.21875 C44.74815893 78.24048347 45.01924708 80.41498706 44.8359375 83.53125 C43.02463649 80.24376104 42.03699786 76.97900082 41.06640625 73.359375 C40.73753418 72.14467529 40.40866211 70.92997559 40.06982422 69.6784668 C39.81359283 68.72271255 39.81359283 68.72271255 39.55218506 67.74765015 C38.66666002 64.45440267 37.7600609 61.16695747 36.85546875 57.87890625 C36.50693848 56.61062988 36.1584082 55.34235352 35.79931641 54.03564453 C35.32244385 52.30096924 35.32244385 52.30096924 34.8359375 50.53125 C34.58376465 49.60812012 34.3315918 48.68499023 34.07177734 47.73388672 C30.67555361 34.78352491 30.67555361 34.78352491 21.8515625 25.20703125 C14.64713017 21.34751393 7.47872675 21.31367599 -0.5703125 21.0078125 C-4.29142729 20.51436032 -6.2202158 19.81259762 -9.1640625 17.53125 C-11.36471346 13.76884675 -12.3666472 11.67922998 -11.6015625 7.34375 C-8.74674964 1.75824659 -6.29013615 0.0260731 0 0 Z " fill="#70B44E" transform="translate(12.1640625,-0.53125)"/>
<path d="M0 0 C7.76919659 4.03211468 12.77246457 9.26076292 16.1875 17.375 C18.57225225 26.94478001 17.83437631 35.08562264 13.02734375 43.73828125 C10.29772693 47.65015249 7.31892755 50.05717155 3.1875 52.375 C2.135625 52.99375 1.08375 53.6125 0 54.25 C-7.94134871 56.5933488 -16.31984661 56.59185426 -23.75 52.69921875 C-31.64104184 47.63281121 -35.86592255 42.21473235 -38.8125 33.375 C-39.60611313 24.20266364 -38.65693769 15.55690528 -32.875 8.125 C-24.08226122 -0.96329303 -11.96380564 -4.78552225 0 0 Z M-22.8125 19.375 C-24.16948258 23.44594774 -24.33637231 27.11853744 -23.8125 31.375 C-21.62044622 35.75910756 -19.38134617 38.50592657 -14.8125 40.375 C-8.40783693 41.09810712 -5.0259846 40.15733196 0.1875 36.375 C3.56951036 32.66569832 3.80681963 28.7360194 3.68359375 23.88671875 C2.85539838 19.69357211 0.38513024 17.08387329 -2.8125 14.375 C-10.15947465 10.70151268 -17.99049752 13.14278925 -22.8125 19.375 Z " fill="#33569A" transform="translate(228.8125,214.625)"/>
<path d="M0 0 C8.24203591 4.27808035 13.34471038 9.58728247 16.25 18.4375 C18.50797635 26.15225255 17.38257024 33.20435499 14.25 40.4375 C9.9887573 48.07834898 3.63472446 53.04003291 -4.75 55.4375 C-13.73576445 56.62362091 -20.57827986 55.07890723 -27.94140625 49.89453125 C-34.36169281 44.7275603 -38.09193199 38.48956809 -38.98828125 30.24609375 C-39.26245967 21.48681469 -37.06691161 13.86628229 -31.5 7 C-23.49650628 -1.41746754 -10.88942168 -4.43924159 0 0 Z M-19.75 15.4375 C-22.73390616 18.19187492 -23.62257379 19.93689705 -24.625 23.875 C-24.80218325 28.92472266 -23.70058333 31.99523564 -20.9375 36.1875 C-17.98308227 39.22632967 -15.91680412 40.3692858 -11.640625 40.50390625 C-5.75892675 40.17824175 -2.7625571 38.74365884 1.25 34.4375 C3.72078289 30.57018765 3.41187714 26.99003765 2.796875 22.58984375 C1.65988902 18.11499178 -1.04040933 15.91056045 -4.75 13.4375 C-10.51575563 11.96779758 -14.64106916 12.57205618 -19.75 15.4375 Z " fill="#2A96D0" transform="translate(145.75,214.5625)"/>
<path d="M0 0 C19.07912839 2.28853181 35.12923069 13.08348896 50.4921875 23.8515625 C60.02517589 30.56484354 60.02517589 30.56484354 70.1875 36.25 C71.15042969 36.72953125 72.11335938 37.2090625 73.10546875 37.703125 C76.02455435 39.01100141 78.950002 40.0420747 82 41 C82 41.33 82 41.66 82 42 C72.76 42 63.52 42 54 42 C56.31 45.3 58.62 48.6 61 52 C61.9375 56.125 61.9375 56.125 62 59 C62.763125 59.144375 63.52625 59.28875 64.3125 59.4375 C67 60 67 60 70 61 C70 62.98 70 64.96 70 67 C67.86608974 66.54273352 66.10639437 66.05870034 64.1875 65 C61.19737502 63.63308572 58.24675551 63.37462564 55 63 C55 62.34 55 61.68 55 61 C54.19175781 60.89042969 53.38351563 60.78085938 52.55078125 60.66796875 C50.94783203 60.43013672 50.94783203 60.43013672 49.3125 60.1875 C48.25675781 60.03667969 47.20101562 59.88585937 46.11328125 59.73046875 C42.89780469 58.97602193 40.79131357 57.70607432 38 56 C37.01 56.495 37.01 56.495 36 57 C35.71125 55.865625 35.4225 54.73125 35.125 53.5625 C34.75375 52.386875 34.3825 51.21125 34 50 C33.01 49.505 33.01 49.505 32 49 C31.47265625 47.1796875 31.47265625 47.1796875 31.0625 44.875 C30.20051091 40.61892886 28.83058569 36.9540651 27 33 C26.32130859 31.38544922 26.32130859 31.38544922 25.62890625 29.73828125 C23.76954347 25.38038174 21.6067517 21.19202033 19.4296875 16.98632812 C17.92445573 14.03101316 16.60161158 11.27634412 16 8 C15.236875 8.0825 14.47375 8.165 13.6875 8.25 C12.800625 8.1675 11.91375 8.085 11 8 C10.525625 7.360625 10.05125 6.72125 9.5625 6.0625 C8.09023102 3.66375512 8.09023102 3.66375512 4.8125 3.25 C3.884375 3.1675 2.95625 3.085 2 3 C2 2.34 2 1.68 2 1 C1.34 0.67 0.68 0.34 0 0 Z " fill="#E52A46" transform="translate(89,77)"/>
<path d="M0 0 C0.66 0 1.32 0 2 0 C2.17757555 6.17416539 1.71425388 11.47293834 0.171875 17.4375 C-0.01840271 18.20247803 -0.20868042 18.96745605 -0.40472412 19.75561523 C-0.8065199 21.36017892 -1.2135048 22.96345151 -1.62548828 24.56542969 C-2.24763951 26.99079795 -2.84956787 29.42054541 -3.44921875 31.8515625 C-9.43419359 55.74028204 -9.43419359 55.74028204 -18.546875 61.65234375 C-23.1091484 63.432869 -27.03179619 63.32973264 -31.875 63.1875 C-32.75414062 63.17396484 -33.63328125 63.16042969 -34.5390625 63.14648438 C-36.69297552 63.11136623 -38.84657004 63.05756694 -41 63 C-41 62.34 -41 61.68 -41 61 C-40.13375 60.360625 -39.2675 59.72125 -38.375 59.0625 C-33.75424072 55.3789702 -31.58335863 50.19590776 -29 45 C-28.60554687 44.2471875 -28.21109375 43.494375 -27.8046875 42.71875 C-26.3368625 39.89182779 -25.07321489 37.23533358 -24.125 34.1875 C-20.51436833 23.95737692 -14.20585953 15.00894308 -6.8125 7.1875 C-6.26658203 6.60291016 -5.72066406 6.01832031 -5.15820312 5.41601562 C-1.44294085 1.44294085 -1.44294085 1.44294085 0 0 Z " fill="#383687" transform="translate(274,104)"/>
<path d="M0 0 C0.33 0 0.66 0 1 0 C1 3.63 1 7.26 1 11 C4.63 11 8.26 11 12 11 C12.33 7.7 12.66 4.4 13 1 C13.33 1 13.66 1 14 1 C14.89410342 10.33841355 13.41393509 17.24117583 8 25 C5.55272193 27.50660603 3.04698187 29.2905712 0 31 C-1.051875 31.61875 -2.10375 32.2375 -3.1875 32.875 C-11.12884871 35.2183488 -19.50734661 35.21685426 -26.9375 31.32421875 C-34.82854184 26.25781121 -39.05342255 20.83973235 -42 12 C-42.0685495 10.10529184 -42.08480372 8.2083166 -42.0625 6.3125 C-42.05347656 5.31863281 -42.04445312 4.32476562 -42.03515625 3.30078125 C-42.02355469 2.54152344 -42.01195312 1.78226563 -42 1 C-41.67 1 -41.34 1 -41 1 C-41 3.31 -41 5.62 -41 8 C-39.783125 7.979375 -38.56625 7.95875 -37.3125 7.9375 C-34.08022678 7.93175884 -31.15065259 8.21233685 -28 9 C-28 6.36 -28 3.72 -28 1 C-27.67 1 -27.34 1 -27 1 C-26.96132812 1.87011719 -26.96132812 1.87011719 -26.921875 2.7578125 C-26.52610364 8.20866355 -25.66178989 11.71047469 -22 16 C-18.9705718 18.38026502 -15.75595996 18.34718912 -11.96484375 18.26953125 C-9.17300183 17.88655492 -7.27362891 16.60491453 -5 15 C-4.34 15 -3.68 15 -3 15 C-0.5978396 10.1956792 -0.38877771 5.26896105 0 0 Z " fill="#3197CF" transform="translate(232,236)"/>
<path d="M0 0 C0.99 0.495 0.99 0.495 2 1 C4.6527883 1.08703998 7.27869912 1.1124623 9.93130493 1.09333801 C10.76041394 1.09137017 11.58952294 1.08940234 12.44375646 1.08737487 C15.23809422 1.07962021 18.03235098 1.06475653 20.82666016 1.05004883 C22.82380008 1.0432223 24.82094175 1.03689141 26.81808472 1.03102112 C31.12770506 1.017665 35.4373031 1.00151907 39.74690628 0.98346901 C46.5626523 0.95568773 53.37839797 0.93864318 60.19418335 0.92399597 C62.52624705 0.91885165 64.85831073 0.91369502 67.19037437 0.90852642 C68.35848302 0.90594086 69.52659166 0.9033553 70.73009753 0.90069139 C86.60283518 0.86462554 102.4755027 0.81932401 118.34814453 0.75317383 C129.0473919 0.70867027 139.74657795 0.67841749 150.44590986 0.66431636 C156.10915397 0.65624266 161.77216407 0.64072756 167.43532181 0.60764503 C172.76555614 0.57656549 178.09550929 0.56412053 183.42583084 0.56586266 C185.38013921 0.56316906 187.33445224 0.55362016 189.28868866 0.53663635 C191.96174098 0.51441698 194.63368763 0.51706456 197.30679321 0.52571106 C198.07587969 0.51337757 198.84496618 0.50104409 199.63735831 0.48833686 C205.91542883 0.55193482 211.1994661 2.43284392 215.875 6.71875 C220.20368565 13.57250228 219.97399396 20.44547142 218.3125 28.21484375 C217.6101855 30.83839361 216.85261908 33.4218423 216 36 C214.930846 32.45449666 215.28188205 29.73728545 215.796875 26.078125 C216.37473781 20.16614396 214.63224094 15.16324185 212 10 C211.01 9.34 210.02 8.68 209 8 C209 7.34 209 6.68 209 6 C203.47177157 5.21595117 198.1378514 4.85788089 192.55908203 4.87974548 C191.74778682 4.87889106 190.9364916 4.87803663 190.10061169 4.87715632 C187.40298894 4.87551929 184.70542944 4.88099358 182.0078125 4.88647461 C180.06577048 4.88675689 178.12372836 4.88659795 176.1816864 4.8860321 C170.92405396 4.88574573 165.66644442 4.89161665 160.40881729 4.89860606 C154.9088579 4.90486619 149.40889795 4.9054455 143.90893555 4.90663147 C133.50044413 4.90973694 123.09196324 4.91793977 112.68347645 4.92798096 C100.83103901 4.93916644 88.97860107 4.94465868 77.12615967 4.94967639 C52.75076728 4.96012303 28.37538423 4.9777073 4 5 C4.21062576 5.7460701 4.42125153 6.4921402 4.63825989 7.26081848 C4.91207993 8.24442856 5.18589996 9.22803864 5.46801758 10.24145508 C5.87676872 11.70087273 5.87676872 11.70087273 6.29377747 13.18977356 C7.18933873 16.75342356 7.50585192 20.0182088 7.6875 23.6875 C7.78611328 25.48767578 7.78611328 25.48767578 7.88671875 27.32421875 C7.92410156 28.20722656 7.96148437 29.09023437 8 30 C6.12663256 27.18994884 5.60991286 25.88017497 5 22.69140625 C4.835 21.86189453 4.67 21.03238281 4.5 20.17773438 C4.2525 18.88319336 4.2525 18.88319336 4 17.5625 C3.67197077 15.85444156 3.33880836 14.14735927 3 12.44140625 C2.855625 11.68545166 2.71125 10.92949707 2.5625 10.15063477 C2.07542871 7.95906683 2.07542871 7.95906683 0.9375 5.97241211 C0 4 0 4 0 0 Z " fill="#EBBE87" transform="translate(68,45)"/>
<path d="M0 0 C4.86936329 3.62469012 9.21220339 6.92724019 10.4140625 13.140625 C10.609375 15.09375 10.8046875 17.046875 11 19 C0.66168528 20.08552305 0.66168528 20.08552305 -3.33203125 17.4765625 C-4.63958655 16.21285028 -5.93177123 14.93301398 -7.20703125 13.63671875 C-10.03258941 11.0573966 -12.24756087 10.86598432 -16 11 C-19.73646155 12.02359004 -23.1034727 13.47127877 -26.4375 15.4375 C-30.74530461 16.38311565 -34.22367052 13.99100596 -38 12 C-38.35794681 8.78966455 -38.35429292 7.44778688 -36.3125 4.8671875 C-25.61615066 -4.34757291 -12.83454974 -8.16744075 0 0 Z " fill="#3D5195" transform="translate(150,217)"/>
<path d="M0 0 C18.9873631 5.47093513 18.9873631 5.47093513 23.74609375 12.625 C25.34173047 16.91979789 26.30491556 21.1990258 27.1875 25.6875 C27.36474609 26.54150391 27.54199219 27.39550781 27.72460938 28.27539062 C28.40009992 31.59546576 29 34.60182321 29 38 C26.04111327 37.69215623 23.08296833 37.37894426 20.125 37.0625 C19.28324219 36.97548828 18.44148438 36.88847656 17.57421875 36.79882812 C16.76855469 36.71181641 15.96289062 36.62480469 15.1328125 36.53515625 C14.38918457 36.456604 13.64555664 36.37805176 12.87939453 36.29711914 C11 36 11 36 9 35 C9.33 35.886875 9.66 36.77375 10 37.6875 C10.91222143 40.70923347 11.18330958 42.88373706 11 46 C9.10274294 42.58367491 8.10966693 39.13522472 7.08984375 35.37109375 C6.91747696 34.74018326 6.74511017 34.10927277 6.56752014 33.45924377 C6.0202181 31.45304889 5.47866104 29.44535917 4.9375 27.4375 C4.39160038 25.42640482 3.84452273 23.41563526 3.29676819 21.40504456 C2.80117029 19.58365933 2.30858974 17.76145388 1.81616211 15.93920898 C1.26225737 13.94445603 0.65466402 11.96399206 0 10 C-0.06802967 8.27204648 -0.08495645 6.54164635 -0.0625 4.8125 C-0.05347656 3.91144531 -0.04445312 3.01039062 -0.03515625 2.08203125 C-0.02355469 1.39496094 -0.01195312 0.70789062 0 0 Z " fill="#4AA44A" transform="translate(46,37)"/>
<path d="M0 0 C0.50537432 5.30643041 -0.69344249 7.86680312 -4 12 C-4.721875 12.53625 -5.44375 13.0725 -6.1875 13.625 C-8.20127625 14.84146113 -8.20127625 14.84146113 -8.4375 17.0625 C-8.7159375 18.0215625 -8.7159375 18.0215625 -9 19 C-11.5 20.125 -11.5 20.125 -14 21 C-14.33 21.66 -14.66 22.32 -15 23 C-17.6875 23.81640625 -17.6875 23.81640625 -21 24.5625 C-24.81005673 25.15573784 -24.81005673 25.15573784 -28 27 C-31.63899175 27.25156269 -35.29083673 27.18522226 -38.9375 27.1875 C-39.96552734 27.19974609 -40.99355469 27.21199219 -42.05273438 27.22460938 C-43.52516602 27.22750977 -43.52516602 27.22750977 -45.02734375 27.23046875 C-46.38460571 27.23663208 -46.38460571 27.23663208 -47.76928711 27.24291992 C-50 27 -50 27 -52 25 C-52.0825 24.360625 -52.165 23.72125 -52.25 23.0625 C-52.4975 22.381875 -52.745 21.70125 -53 21 C-53.99 20.54625 -54.98 20.0925 -56 19.625 C-56.99 19.08875 -57.98 18.5525 -59 18 C-59.875 14.8125 -59.875 14.8125 -60 12 C-59.43152344 12.39832031 -58.86304688 12.79664063 -58.27734375 13.20703125 C-51.80777661 17.64608316 -45.9741579 21.20258421 -38 22 C-37.36707031 22.06445312 -36.73414063 22.12890625 -36.08203125 22.1953125 C-26.65788622 22.7102931 -16.9207616 19.70097312 -9.65625 13.65234375 C-6.97460146 10.97701985 -4.9877245 8.23005231 -3 5 C-3 4.34 -3 3.68 -3 3 C-24.12 3 -45.24 3 -67 3 C-67 2.34 -67 1.68 -67 1 C-58.70725269 0.86934022 -50.41450147 0.73893282 -42.12174511 0.60884857 C-38.27118422 0.54843883 -34.42062475 0.48794181 -30.57006836 0.42724609 C-26.85480883 0.36868624 -23.13954578 0.31035465 -19.42428017 0.25218201 C-18.00609522 0.22993619 -16.58791157 0.20760781 -15.16972923 0.18519592 C-13.18501498 0.15384503 -11.20029568 0.1228136 -9.21557617 0.09179688 C-8.08528488 0.07403198 -6.95499359 0.05626709 -5.79045105 0.03796387 C-3.86043783 0.01170619 -1.93019183 0 0 0 Z " fill="#E38083" transform="translate(210,118)"/>
<path d="M0 0 C5.09640231 4.67170212 8.70578926 8.57843809 9.31640625 15.6796875 C9.58279859 26.12580212 9.58279859 26.12580212 7 30 C7 29.01 7 28.02 7 27 C3.7 27 0.4 27 -3 27 C-3 23.37 -3 19.74 -3 16 C-3.66 16 -4.32 16 -5 16 C-6.68732277 14.01739574 -8.35366057 12.0167658 -10 10 C-12.56893838 8.71553081 -14.76576337 8.67022856 -17.625 8.4375 C-18.62789062 8.35371094 -19.63078125 8.26992187 -20.6640625 8.18359375 C-21.82035156 8.09271484 -21.82035156 8.09271484 -23 8 C-23 7.67 -23 7.34 -23 7 C-19.04 7 -15.08 7 -11 7 C-11 6.34 -11 5.68 -11 5 C-9.6078125 5.5259375 -9.6078125 5.5259375 -8.1875 6.0625 C-5.0197047 7.32382628 -5.0197047 7.32382628 -2 6 C-2.33 4.68 -2.66 3.36 -3 2 C-2.34 2 -1.68 2 -1 2 C-0.67 1.34 -0.34 0.68 0 0 Z " fill="#2F61A9" transform="translate(236,220)"/>
<path d="M0 0 C0 3.6136481 -0.97096143 4.90834772 -2.875 7.9375 C-5.09666626 11.48736257 -5.09666626 11.48736257 -7.0703125 15.17578125 C-8.31551499 17.61909874 -9.94724854 19.20384248 -12 21 C-12.66 21 -13.32 21 -14 21 C-14 21.66 -14 22.32 -14 23 C-8.72 23 -3.44 23 2 23 C2 23.33 2 23.66 2 24 C-46.51 24 -95.02 24 -145 24 C-145 23.67 -145 23.34 -145 23 C-115.56571532 22.21458065 -86.1295737 21.78885368 -56.6875 21.4375 C-55.29240644 21.4208473 -55.29240644 21.4208473 -53.86912918 21.40385818 C-42.24612886 21.26546829 -30.62308641 21.13095588 -19 21 C-18.67 20.34 -18.34 19.68 -18 19 C-16.35 19 -14.7 19 -13 19 C-12.75121094 18.27941406 -12.50242188 17.55882812 -12.24609375 16.81640625 C-10.87871659 13.72587668 -9.21740011 11.53381354 -7.0625 8.9375 C-4.64156747 6.00070521 -2.25778826 3.06464676 0 0 Z " fill="#CD7AA1" transform="translate(247,144)"/>
<path d="M0 0 C2.77132017 0.30859025 5.54199986 0.6217033 8.3125 0.9375 C9.49102539 1.06801758 9.49102539 1.06801758 10.69335938 1.20117188 C11.45068359 1.28818359 12.20800781 1.37519531 12.98828125 1.46484375 C14.03302612 1.58267212 14.03302612 1.58267212 15.09887695 1.70288086 C17 2 17 2 20 3 C20.51792189 6.1650782 20.76202541 7.94180529 20 11 C17.91336433 13.62199472 15.65693277 15.78386188 13.1640625 18.01953125 C10.82789567 19.99889421 10.82789567 19.99889421 9 23 C8.34 23 7.68 23 7 23 C6.34 23.66 5.68 24.32 5 25 C2.09528789 16.76998236 0.97836642 8.63264485 0 0 Z " fill="#2B579D" transform="translate(55,72)"/>
<path d="M0 0 C16.30744312 -0.07014313 32.61483715 -0.1230141 48.92239475 -0.15543652 C56.49461987 -0.17089228 64.06675114 -0.19195702 71.63891602 -0.22631836 C78.24035406 -0.25626035 84.84172412 -0.27558438 91.44322819 -0.28226548 C94.93730553 -0.28616965 98.43118842 -0.29531779 101.92520332 -0.31719017 C105.82981074 -0.34143361 109.73422953 -0.34196691 113.63891602 -0.34057617 C114.79194214 -0.351362 115.94496826 -0.36214783 117.13293457 -0.3732605 C123.21205305 -0.34982612 127.62428415 0.08548353 133 3 C132.34 3.33 131.68 3.66 131 4 C130.01 3.505 130.01 3.505 129 3 C129 3.66 129 4.32 129 5 C112.83 5 96.66 5 80 5 C80.33 4.34 80.66 3.68 81 3 C84.465 2.505 84.465 2.505 88 2 C58.96 1.67 29.92 1.34 0 1 C0 0.67 0 0.34 0 0 Z " fill="#7788B2" transform="translate(117,186)"/>
<path d="M0 0 C3.60829512 5.41244267 3.72371437 11.71528199 2.65625 18.03515625 C2.1875 19.9375 2.1875 19.9375 1 23 C0.01 23.33 -0.98 23.66 -2 24 C-2.66 24.99 -3.32 25.98 -4 27 C-4 25.02 -4 23.04 -4 21 C-5.65 20.67 -7.3 20.34 -9 20 C-9.33 21.65 -9.66 23.3 -10 25 C-10.66 25 -11.32 25 -12 25 C-13.13670623 21.58988131 -12.53453078 20.35445217 -11.48046875 17.05078125 C-10.61954466 13.37610528 -10.88441341 9.75656431 -11 6 C-7.04 6 -3.08 6 1 6 C0.67 4.02 0.34 2.04 0 0 Z M-37 21 C-35.7315625 21.99 -35.7315625 21.99 -34.4375 23 C-28.68010118 26.39232627 -21.45130242 25.29890204 -15 25 C-15.33 25.66 -15.66 26.32 -16 27 C-20.97725479 28.55539212 -27.25956239 29.14727644 -32.13671875 27.10546875 C-33.80482624 26.14791415 -35.41011345 25.08247595 -37 24 C-37 23.01 -37 22.02 -37 21 Z " fill="#3C8BC3" transform="translate(160,230)"/>
<path d="M0 0 C1.90410926 5.71232777 -1.08380733 12.45920192 -3 18 C-5.41172606 22.65712619 -8.85196301 26.9299489 -13.58984375 29.390625 C-19.5233321 30.89082627 -25.93351887 30.26217686 -32 30 C-32 29.67 -32 29.34 -32 29 C-30.02 28.67 -28.04 28.34 -26 28 C-26 27.34 -26 26.68 -26 26 C-24.89785156 25.89751953 -24.89785156 25.89751953 -23.7734375 25.79296875 C-20.17828378 24.7650586 -18.9933653 23.17249347 -16.625 20.3125 C-13.00099137 16.08145475 -9.32702098 12.49844249 -5 9 C-4.34 9.33 -3.68 9.66 -3 10 C-3 8.35 -3 6.7 -3 5 C-2.34 5 -1.68 5 -1 5 C-0.67 3.35 -0.34 1.7 0 0 Z " fill="#354891" transform="translate(268,137)"/>
<path d="M0 0 C0.8353125 0.928125 0.8353125 0.928125 1.6875 1.875 C3.84913819 4.15668358 3.84913819 4.15668358 6.6875 4.875 C7.450625 5.24625 8.21375 5.6175 9 6 C10.51802879 10.78762928 10.09979326 16.01033709 10 21 C6.91190305 22.76462683 5.76687864 23 2 23 C1.67 23.99 1.34 24.98 1 26 C0.34 26 -0.32 26 -1 26 C-2.53199689 22.93600622 -2.19053239 19.73489095 -2.1875 16.375 C-2.18814453 15.653125 -2.18878906 14.93125 -2.18945312 14.1875 C-2.13960879 9.16681578 -1.59648224 4.78944671 0 0 Z " fill="#2A7CC1" transform="translate(111,226)"/>
<path d="M0 0 C5.68917862 2.31075218 11.01253 5.07707302 16.375 8.0625 C17.19355469 8.50916016 18.01210938 8.95582031 18.85546875 9.41601562 C19.63277344 9.84720703 20.41007812 10.27839844 21.2109375 10.72265625 C21.91524902 11.11203369 22.61956055 11.50141113 23.34521484 11.90258789 C25 13 25 13 26 15 C22.6043303 15.08745946 19.20895227 15.14054444 15.8125 15.1875 C14.37293945 15.22520508 14.37293945 15.22520508 12.90429688 15.26367188 C4.08208236 15.35525196 4.08208236 15.35525196 0 12 C-1 11 -1 11 -1.1328125 8.75 C-1.13023438 7.8425 -1.12765625 6.935 -1.125 6 C-1.12757812 5.0925 -1.13015625 4.185 -1.1328125 3.25 C-1 1 -1 1 0 0 Z " fill="#46A651" transform="translate(3,5)"/>
<path d="M0 0 C5.16287879 0.35606061 5.16287879 0.35606061 7.625 2.25 C8.375 4.375 8.375 4.375 8.625 6.25 C9.285 6.25 9.945 6.25 10.625 6.25 C14.17046552 11.79942428 14.93843662 17.71260772 14.625 24.25 C13.25503992 28.07416663 10.99890971 30.00072686 7.625 32.25 C4.99609375 32.55078125 4.99609375 32.55078125 2.0625 32.5625 C1.09183594 32.57925781 0.12117187 32.59601563 -0.87890625 32.61328125 C-1.70261719 32.49339844 -2.52632812 32.37351563 -3.375 32.25 C-4.035 31.26 -4.695 30.27 -5.375 29.25 C-4.158125 29.311875 -2.94125 29.37375 -1.6875 29.4375 C2.23470692 29.41667412 4.59407723 28.92434362 7.625 26.25 C10.23998986 21.25774664 9.77658639 16.59454195 8.625 11.25 C7.8486068 8.1754644 7.8486068 8.1754644 5.625 6.25 C2.59185798 5.32912197 -0.21392248 5.02746927 -3.375 5.25 C-5.91456606 6.50024533 -5.91456606 6.50024533 -7.375 8.25 C-4.97631796 0.36861614 -4.97631796 0.36861614 0 0 Z " fill="#E8A97C" transform="translate(139.375,64.75)"/>
<path d="M0 0 C2.05078125 0.03255208 4.1015625 0.06510417 6.15234375 0.09765625 C6.15234375 0.42765625 6.15234375 0.75765625 6.15234375 1.09765625 C3.84234375 1.42765625 1.53234375 1.75765625 -0.84765625 2.09765625 C14.99234375 2.42765625 30.83234375 2.75765625 47.15234375 3.09765625 C47.15234375 2.43765625 47.15234375 1.77765625 47.15234375 1.09765625 C48.47234375 1.42765625 49.79234375 1.75765625 51.15234375 2.09765625 C50.49234375 5.72765625 49.83234375 9.35765625 49.15234375 13.09765625 C47.15234375 10.09765625 47.15234375 10.09765625 47.15234375 5.09765625 C29.00234375 5.09765625 10.85234375 5.09765625 -7.84765625 5.09765625 C-6.19765625 3.77765625 -4.54765625 2.45765625 -2.84765625 1.09765625 C-1.84765625 0.09765625 -1.84765625 0.09765625 0 0 Z " fill="#2B468B" transform="translate(198.84765625,187.90234375)"/>
<path d="M0 0 C0.99 0.33 1.98 0.66 3 1 C2.46890625 1.51949219 1.9378125 2.03898437 1.390625 2.57421875 C-1.67716118 5.60281788 -4.64273086 8.54617163 -7.3125 11.9375 C-9 14 -9 14 -12 15 C-12.54527344 16.08796875 -13.09054687 17.1759375 -13.65234375 18.296875 C-16.16324864 22.97243542 -19.80204092 24.32171278 -24.5625 26.25 C-26.08712809 26.89518267 -27.60937418 27.54603005 -29.12890625 28.203125 C-29.79994385 28.47801758 -30.47098145 28.75291016 -31.16235352 29.03613281 C-33.18490914 30.09698702 -34.43347122 31.35499333 -36 33 C-42.73083954 36.64168557 -49.43149683 37.71222421 -57 38 C-54.56977184 35.09499217 -52.52507567 34.39962562 -48.875 33.5625 C-43.58144051 32.22174281 -38.92034845 30.32896493 -34 28 C-33.0203125 27.57203125 -32.040625 27.1440625 -31.03125 26.703125 C-29.53078125 26.04570312 -29.53078125 26.04570312 -28 25.375 C-27.071875 24.97023437 -26.14375 24.56546875 -25.1875 24.1484375 C-22.85418236 23.19506799 -22.85418236 23.19506799 -22 21 C-21.030625 20.731875 -20.06125 20.46375 -19.0625 20.1875 C-18.051875 19.795625 -17.04125 19.40375 -16 19 C-15.30899103 17.34327768 -14.64584029 15.67484702 -14 14 C-12.23046875 11.6484375 -12.23046875 11.6484375 -10.1875 9.375 C-9.52105469 8.61960937 -8.85460937 7.86421875 -8.16796875 7.0859375 C-5.93530604 4.93775392 -3.65997156 3.56256394 -1 2 C-0.67 1.34 -0.34 0.68 0 0 Z " fill="#E72B56" transform="translate(271,104)"/>
<path d="M0 0 C3.72601621 2.70982997 4.25645786 6.71199971 5 11 C5.30878859 13.57193538 5.55856687 16.14191788 5.78125 18.72265625 C6.01860481 21.19368936 6.43596297 23.58269846 7 26 C7.66 26 8.32 26 9 26 C9 27.98 9 29.96 9 32 C9.99 32.33 10.98 32.66 12 33 C12.03738281 33.89460938 12.07476562 34.78921875 12.11328125 35.7109375 C12.48202921 42.49300784 13.10107835 48.52858677 15.4765625 54.9140625 C16.07839958 57.31242818 15.78581121 58.68447629 15 61 C14.49487756 59.39743892 13.99608373 57.79288208 13.5 56.1875 C13.2215625 55.29417969 12.943125 54.40085938 12.65625 53.48046875 C12 51 12 51 12 48 C11.01 47.67 10.02 47.34 9 47 C8.96261719 46.16597656 8.92523438 45.33195312 8.88671875 44.47265625 C8.47805573 37.47730687 7.5759163 31.50618035 5 25 C3.39413792 20.37133871 2.16895043 15.75373175 1 11 C0.67 10.01 0.34 9.02 0 8 C-0.12781786 5.32605036 -0.04391871 2.67904143 0 0 Z " fill="#902D72" transform="translate(85,105)"/>
<path d="M0 0 C0.99 0.33 1.98 0.66 3 1 C3.08040527 1.54938232 3.16081055 2.09876465 3.24365234 2.66479492 C3.61444691 5.17334447 3.99463528 7.68038446 4.375 10.1875 C4.56449219 11.48397461 4.56449219 11.48397461 4.7578125 12.80664062 C5.42543333 17.16286652 6.24897335 20.93332994 8 25 C8.35516152 26.78370008 8.66695498 28.57651978 8.9375 30.375 C9.50029734 33.71158421 10.11353575 36.62779395 11.5625 39.6875 C13.25746888 43.59329784 13.62963401 46.77782772 14 51 C13.34 51 12.68 51 12 51 C10.24252386 46.49646738 9.80705592 42.82360189 10 38 C9.34 38 8.68 38 8 38 C6.66666667 32 5.33333333 26 4 20 C3.34 20 2.68 20 2 20 C1.90912109 18.71802734 1.90912109 18.71802734 1.81640625 17.41015625 C1.73261719 16.30542969 1.64882812 15.20070313 1.5625 14.0625 C1.48128906 12.96035156 1.40007812 11.85820313 1.31640625 10.72265625 C1.29581916 8.08890097 1.29581916 8.08890097 0 7 C-0.04092937 4.66702567 -0.04241723 2.33294775 0 0 Z " fill="#4D307E" transform="translate(80,93)"/>
<path d="M0 0 C18.81 0 37.62 0 57 0 C57 0.33 57 0.66 57 1 C39.18 1.33 21.36 1.66 3 2 C3.99 5.63 4.98 9.26 6 13 C6.51171875 17.13671875 6.51171875 17.13671875 6.6875 20.6875 C6.78611328 22.48767578 6.78611328 22.48767578 6.88671875 24.32421875 C6.92410156 25.20722656 6.96148437 26.09023437 7 27 C5.14385404 24.21578105 4.60022338 22.88138706 3.96484375 19.7265625 C3.79533203 18.9015625 3.62582031 18.0765625 3.45117188 17.2265625 C3.28166016 16.36804688 3.11214844 15.50953125 2.9375 14.625 C2.76412109 13.77421875 2.59074219 12.9234375 2.41210938 12.046875 C1.93488658 9.69915826 1.46599003 7.3499682 1 5 C0.67 3.35 0.34 1.7 0 0 Z " fill="#DD8C42" transform="translate(69,48)"/>
<path d="M0 0 C0.33 0.66 0.66 1.32 1 2 C1.66 2 2.32 2 3 2 C3.33 3.65 3.66 5.3 4 7 C17.86 7 31.72 7 46 7 C46.495 7.99 46.495 7.99 47 9 C31.82 9 16.64 9 1 9 C0.67 6.03 0.34 3.06 0 0 Z " fill="#9F2D65" transform="translate(100,158)"/>
<path d="M0 0 C1.32 0 2.64 0 4 0 C3.83242187 0.65226563 3.66484375 1.30453125 3.4921875 1.9765625 C1.80774779 9.13187599 1.80774779 9.13187599 4 16 C6.7453981 19.74372468 8.92372166 21.29329733 13.4375 22 C17.70641284 22.24860557 20.42412771 21.46905467 24 19 C27.43569917 15.91971799 27.47894459 12.49966325 27.7890625 8.12109375 C28 6 28 6 29 3 C30.90136611 6.80273222 30.47978192 11.21795288 29.3984375 15.234375 C28.28739304 18.30938693 27.33170386 20.66829614 25 23 C22.4375 23.625 22.4375 23.625 19 24 C18.31421875 24.08894531 17.6284375 24.17789062 16.921875 24.26953125 C11.01027272 24.71393492 7.57871706 23.02286798 2.75 19.703125 C-0.18382337 16.84788619 0.01601497 14.56628919 -0.09765625 10.546875 C-0.08605469 9.29390625 -0.07445313 8.0409375 -0.0625 6.75 C-0.05347656 5.48671875 -0.04445313 4.2234375 -0.03515625 2.921875 C-0.02355469 1.95765625 -0.01195313 0.9934375 0 0 Z " fill="#8CC0D8" transform="translate(120,232)"/>
<path d="M0 0 C0.99 0 1.98 0 3 0 C2.35521919 6.34405026 1.03753669 12.3329118 -0.5625 18.5 C-0.79646484 19.4178125 -1.03042969 20.335625 -1.27148438 21.28125 C-1.84333715 23.52197923 -2.41958293 25.76147688 -3 28 C-3.33 28 -3.66 28 -4 28 C-4 26.35 -4 24.7 -4 23 C-4.99 22.67 -5.98 22.34 -7 22 C-6.59018007 19.5410804 -6.20929805 17.4047008 -5.05859375 15.1796875 C-3.81892554 12.62716033 -3.14446555 10.12143161 -2.4375 7.375 C-1.09722222 2.19444444 -1.09722222 2.19444444 0 0 Z " fill="#C84B68" transform="translate(280,81)"/>
<path d="M0 0 C0.99 0 1.98 0 3 0 C3.50537432 5.30643041 2.30655751 7.86680312 -1 12 C-1.721875 12.53625 -2.44375 13.0725 -3.1875 13.625 C-5.20127625 14.84146113 -5.20127625 14.84146113 -5.4375 17.0625 C-5.623125 17.701875 -5.80875 18.34125 -6 19 C-8.5 20.125 -8.5 20.125 -11 21 C-11.33 21.66 -11.66 22.32 -12 23 C-12.804375 22.814375 -13.60875 22.62875 -14.4375 22.4375 C-15.283125 22.293125 -16.12875 22.14875 -17 22 C-17.33 22.33 -17.66 22.66 -18 23 C-20.67058851 23.14115161 -23.32432238 23.04247107 -26 23 C-26 22.67 -26 22.34 -26 22 C-25.154375 21.78085938 -24.30875 21.56171875 -23.4375 21.3359375 C-12.3464419 18.23548262 -6.41354461 14.43168325 0 5 C0.66 5 1.32 5 2 5 C2 3.68 2 2.36 2 1 C1.34 0.67 0.68 0.34 0 0 Z " fill="#DC7084" transform="translate(207,118)"/>
<path d="M0 0 C4.25491665 0.47276852 6.22542845 2.92547477 9 6 C12.68287633 13.36575267 9.42416959 23.6697729 7 31 C5.930846 27.45449666 6.28188205 24.73728545 6.796875 21.078125 C7.37473781 15.16614396 5.63224094 10.16324185 3 5 C2.01 4.34 1.02 3.68 0 3 C0 2.01 0 1.02 0 0 Z " fill="#E08F6F" transform="translate(277,50)"/>
<path d="M0 0 C0.66 0 1.32 0 2 0 C2 0.66 2 1.32 2 2 C2.99 2.33 3.98 2.66 5 3 C5.86627829 5.58987338 6.53741658 8.03397329 7.125 10.6875 C7.29386719 11.39583984 7.46273437 12.10417969 7.63671875 12.83398438 C8.38850461 16.03943353 9.02439218 19.17614351 9.4765625 22.44140625 C9.64929688 23.28574219 9.82203125 24.13007813 10 25 C12.25141979 26.36784258 12.25141979 26.36784258 15 27 C19.88888889 28.77777778 19.88888889 28.77777778 21 31 C18.35940606 30.55990101 16.20426133 30.10504868 13.8125 28.875 C12.9153125 28.441875 12.9153125 28.441875 12 28 C11.34 28.33 10.68 28.66 10 29 C9.71125 27.865625 9.4225 26.73125 9.125 25.5625 C8.75375 24.386875 8.3825 23.21125 8 22 C7.34 21.67 6.68 21.34 6 21 C5.47265625 19.1796875 5.47265625 19.1796875 5.0625 16.875 C4.45027773 13.81388866 3.72770206 11.09345502 2.4375 8.25 C1.18825596 5.42562217 0.4596396 3.03362138 0 0 Z " fill="#DC2857" transform="translate(115,105)"/>
<path d="M0 0 C2.77132017 0.30859025 5.54199986 0.6217033 8.3125 0.9375 C9.49102539 1.06801758 9.49102539 1.06801758 10.69335938 1.20117188 C11.45068359 1.28818359 12.20800781 1.37519531 12.98828125 1.46484375 C14.03302612 1.58267212 14.03302612 1.58267212 15.09887695 1.70288086 C17 2 17 2 20 3 C20 3.66 20 4.32 20 5 C11.09 5.99 11.09 5.99 2 7 C0 3 0 3 0 0 Z " fill="#237856" transform="translate(55,72)"/>
<path d="M0 0 C3.54159657 -0.05841253 7.08306793 -0.09373452 10.625 -0.125 C11.62402344 -0.14175781 12.62304688 -0.15851563 13.65234375 -0.17578125 C18.84088709 -0.21014246 23.14923649 -0.10254937 28 2 C28 2.33 28 2.66 28 3 C18.43 3.33 8.86 3.66 -1 4 C-0.67 2.68 -0.34 1.36 0 0 Z " fill="#C73142" transform="translate(143,116)"/>
<path d="M0 0 C1.34882814 2.69765628 0.80338265 4.15164334 0 7 C-0.99 7.495 -0.99 7.495 -2 8 C-3.06469264 11.13056995 -4.0088161 14.26462313 -4.88085938 17.453125 C-5.94744616 20.97869161 -6.66646798 22.75290307 -9.66796875 24.9765625 C-10.82232422 25.48316406 -10.82232422 25.48316406 -12 26 C-9.76388891 17.57158129 -6.27943359 6.27943359 0 0 Z " fill="#592C7A" transform="translate(258,123)"/>
<path d="M0 0 C0.56847656 0.39832031 1.13695312 0.79664063 1.72265625 1.20703125 C11.19339966 7.70532097 18.59229108 9.65512447 30 11 C30 11.33 30 11.66 30 12 C10.64658635 12.31726908 10.64658635 12.31726908 4 7 C3.01 6.67 2.02 6.34 1 6 C0.67 4.02 0.34 2.04 0 0 Z " fill="#D4738D" transform="translate(150,130)"/>
<path d="M0 0 C0.66 0 1.32 0 2 0 C1.45912682 3.78611227 -0.11722332 5.55400767 -3 8 C-3.66 8 -4.32 8 -5 8 C-5.2475 8.556875 -5.495 9.11375 -5.75 9.6875 C-7.64138717 13.18656627 -9.39009106 16.41864399 -13.25 17.8125 C-13.8275 17.874375 -14.405 17.93625 -15 18 C-13.71042686 15.18947006 -12.32935483 13.05202908 -10.21484375 10.80078125 C-9.68439453 10.23166016 -9.15394531 9.66253906 -8.60742188 9.07617188 C-8.05634766 8.49416016 -7.50527344 7.91214844 -6.9375 7.3125 C-6.10508789 6.42208008 -6.10508789 6.42208008 -5.25585938 5.51367188 C-1.47614397 1.47614397 -1.47614397 1.47614397 0 0 Z " fill="#512E6D" transform="translate(274,104)"/>
<path d="M0 0 C1.875 1.5 1.875 1.5 3 3 C1.948125 2.95875 0.89625 2.9175 -0.1875 2.875 C-3.79735482 2.9933559 -5.89397921 3.22513098 -9 5 C-11.5683661 8.62592862 -11.22964709 12.49166845 -11.125 16.75 C-11.11597656 17.44738281 -11.10695312 18.14476563 -11.09765625 18.86328125 C-11.07419888 20.57566958 -11.03833104 22.28788004 -11 24 C-12.90375632 22.40346362 -13.90049762 21.49458535 -14.3984375 19.01953125 C-14.3261696 12.21430408 -13.41913295 6.61527887 -8.6875 1.5 C-5.46080693 -0.30094497 -3.64102004 -0.55406827 0 0 Z " fill="#F4DDB3" transform="translate(215,67)"/>
<path d="M0 0 C1.45823212 -0.0270043 2.91660675 -0.04639787 4.375 -0.0625 C5.18710938 -0.07410156 5.99921875 -0.08570312 6.8359375 -0.09765625 C9 0 9 0 11 1 C11 2.32 11 3.64 11 5 C12.32 5.33 13.64 5.66 15 6 C15.08071788 8.79224073 15.14035408 11.58216566 15.1875 14.375 C15.22520508 15.56609375 15.22520508 15.56609375 15.26367188 16.78125 C15.29004405 18.85586148 15.15486462 20.93100865 15 23 C14.01 23.66 13.02 24.32 12 25 C12.165 24.34 12.33 23.68 12.5 23 C13.63631482 16.18211105 13.44032346 12.02056605 10 6 C10 5.34 10 4.68 10 4 C6.7 3.01 3.4 2.02 0 1 C0 0.67 0 0.34 0 0 Z " fill="#DD7644" transform="translate(210,66)"/>
<path d="M0 0 C0.33 0.66 0.66 1.32 1 2 C1.66 2 2.32 2 3 2 C3.33 3.32 3.66 4.64 4 6 C4.78375 5.938125 5.5675 5.87625 6.375 5.8125 C7.674375 5.9053125 7.674375 5.9053125 9 6 C9.99 7.485 9.99 7.485 11 9 C14.00778521 10.00259507 16.53820647 10.30314642 19.6875 10.5625 C20.68136719 10.64628906 21.67523438 10.73007812 22.69921875 10.81640625 C23.45847656 10.87699219 24.21773437 10.93757813 25 11 C25 11.33 25 11.66 25 12 C14.78141596 12.62245182 7.8432037 11.42241392 -0.0625 4.75 C-1.05151293 3.84396548 -2.03464992 2.93120586 -3 2 C-2.01 1.34 -1.02 0.68 0 0 Z " fill="#75B7D4" transform="translate(116,258)"/>
<path d="M0 0 C0.66 0 1.32 0 2 0 C1.95359375 0.85722656 1.9071875 1.71445313 1.859375 2.59765625 C1.63528982 9.69635478 1.71121045 14.23693905 6 20 C4.68 20.33 3.36 20.66 2 21 C-1.08594963 16.80960524 -1.40551974 13.29467155 -1.25 8.25 C-1.24484375 7.56550781 -1.2396875 6.88101563 -1.234375 6.17578125 C-1.15483526 1.15483526 -1.15483526 1.15483526 0 0 Z " fill="#DA7746" transform="translate(200,75)"/>
<path d="M0 0 C0 1.98 0 3.96 0 6 C-2.13391026 5.54273352 -3.89360563 5.05870034 -5.8125 4 C-8.80262498 2.63308572 -11.75324449 2.37462564 -15 2 C-9.08317078 -1.94455282 -6.79497679 -2.26499226 0 0 Z " fill="#E62E56" transform="translate(159,138)"/>
<path d="M0 0 C0.33 0 0.66 0 1 0 C1 3.63 1 7.26 1 11 C4.63 11 8.26 11 12 11 C12.33 7.7 12.66 4.4 13 1 C13.33 1 13.66 1 14 1 C14.31461385 8.09629025 14.44572039 13.68284595 11 20 C10.67 20 10.34 20 10 20 C9.67 17.36 9.34 14.72 9 12 C6.03 12 3.06 12 0 12 C0 8.04 0 4.08 0 0 Z " fill="#78AECE" transform="translate(232,236)"/>
<path d="M0 0 C0 3.6136481 -0.97096143 4.90834772 -2.875 7.9375 C-5.09666626 11.48736257 -5.09666626 11.48736257 -7.0703125 15.17578125 C-8.31551499 17.61909874 -9.94724854 19.20384248 -12 21 C-12.66 21 -13.32 21 -14 21 C-11.65596551 14.35856896 -7.48979711 9.29565813 -3 4 C-1.9888778 2.67508126 -0.98336098 1.34565187 0 0 Z " fill="#C0337B" transform="translate(247,144)"/>
<path d="M0 0 C1.10711168 3.80268795 0.87134928 5.4274241 -1 9 C-1.85332286 10.07998674 -2.72965693 11.14208523 -3.625 12.1875 C-6.21506027 14.64115354 -6.21506027 14.64115354 -6 17 C-7.98 17.33 -9.96 17.66 -12 18 C-12 17.34 -12 16.68 -12 16 C-11.13375 15.360625 -10.2675 14.72125 -9.375 14.0625 C-4.75950714 10.43604132 -2.55052801 5.164367 0 0 Z " fill="#59307F" transform="translate(245,149)"/>
<path d="M0 0 C0.99 0.33 1.98 0.66 3 1 C6.34312351 9.15779284 6.62689986 18.30290705 7 27 C5.14385404 24.21578105 4.60022338 22.88138706 3.96484375 19.7265625 C3.79533203 18.9015625 3.62582031 18.0765625 3.45117188 17.2265625 C3.28166016 16.36804688 3.11214844 15.50953125 2.9375 14.625 C2.76412109 13.77421875 2.59074219 12.9234375 2.41210938 12.046875 C1.93488774 9.69916394 1.46582727 7.34999431 1 5 C0.79503906 3.97648437 0.59007813 2.95296875 0.37890625 1.8984375 C0.19134766 0.95871094 0.19134766 0.95871094 0 0 Z " fill="#BD863F" transform="translate(69,48)"/>
<path d="M0 0 C0.33 0 0.66 0 1 0 C1 2.31 1 4.62 1 7 C3.64 7 6.28 7 9 7 C7 9 7 9 4.9375 9.4375 C3.9784375 9.7159375 3.9784375 9.7159375 3 10 C2.67 10.99 2.34 11.98 2 13 C2.66 13 3.32 13 4 13 C4 14.65 4 16.3 4 18 C4.66 18 5.32 18 6 18 C6.33 19.65 6.66 21.3 7 23 C3.03618209 19.71959897 1.10298423 15.95934389 0 11 C-0.22808246 7.31671085 -0.18286191 3.68432884 0 0 Z " fill="#7BB7D5" transform="translate(190,237)"/>
<path d="M0 0 C0.81434143 2.85160391 1.11881242 5.36626131 1.09765625 8.328125 C1.09282227 9.52695313 1.09282227 9.52695313 1.08789062 10.75 C1.07951172 11.575 1.07113281 12.4 1.0625 13.25 C1.05798828 14.09046875 1.05347656 14.9309375 1.04882812 15.796875 C1.03707961 17.86461401 1.01914522 19.93231624 1 22 C1.99 22 2.98 22 4 22 C4 24.31 4 26.62 4 29 C-1.05423254 23.22373424 -2.45702227 16.85886368 -2.23828125 9.41015625 C-1.90781374 6.06755869 -1.10221033 3.16885469 0 0 Z " fill="#91C7DB" transform="translate(109,230)"/>
<path d="M0 0 C0.99 0.495 0.99 0.495 2 1 C2 1.66 2 2.32 2 3 C2.66386719 3.06058594 3.32773438 3.12117188 4.01171875 3.18359375 C12.78207381 4.01581722 12.78207381 4.01581722 17 5 C17 5.66 17 6.32 17 7 C11.39 6.67 5.78 6.34 0 6 C0 4.02 0 2.04 0 0 Z " fill="#E46A48" transform="translate(76,70)"/>
<path d="M0 0 C2 1 2 1 2.625 2.5625 C3.16368951 6.06398181 3.05903219 9.45806833 3 13 C2.01 13.495 2.01 13.495 1 14 C0.34 13.67 -0.32 13.34 -1 13 C-1.484375 10.8203125 -1.484375 10.8203125 -1.75 8.125 C-1.84796875 7.24070313 -1.9459375 6.35640625 -2.046875 5.4453125 C-2 3 -2 3 0 0 Z " fill="#2F64AC" transform="translate(241,229)"/>
<path d="M0 0 C0.33 0.66 0.66 1.32 1 2 C0.67 2.99 0.34 3.98 0 5 C-0.61767656 11.12925207 0.20897362 15.53424001 3 21 C2.01 21 1.02 21 0 21 C-0.33 20.34 -0.66 19.68 -1 19 C-1.66 19.33 -2.32 19.66 -3 20 C-3.08139142 17.60347472 -3.14067009 15.20974564 -3.1875 12.8125 C-3.22520508 11.80219727 -3.22520508 11.80219727 -3.26367188 10.77148438 C-3.32923478 6.29135252 -2.66743649 3.60559001 0 0 Z " fill="#EBB692" transform="translate(131,73)"/>
<path d="M0 0 C-0.11487748 1.58409994 -0.24234508 3.16728963 -0.375 4.75 C-0.44460938 5.63171875 -0.51421875 6.5134375 -0.5859375 7.421875 C-0.99850055 9.99066382 -1.71160957 11.75841015 -3 14 C-3 13.34 -3 12.68 -3 12 C-3.66 12 -4.32 12 -5 12 C-5.144375 11.21625 -5.28875 10.4325 -5.4375 9.625 C-5.87798925 7.03578982 -5.87798925 7.03578982 -7 5 C-1.125 0 -1.125 0 0 0 Z " fill="#48467E" transform="translate(276,107)"/>
<path d="M0 0 C1.25127906 3.54667178 0.72285053 5.72253438 -0.4375 9.25 C-0.72496094 10.14203125 -1.01242187 11.0340625 -1.30859375 11.953125 C-1.53675781 12.62859375 -1.76492188 13.3040625 -2 14 C-2.99 14 -3.98 14 -5 14 C-4.93983797 12.2282281 -4.85100672 10.45741321 -4.75 8.6875 C-4.70359375 7.70136719 -4.6571875 6.71523437 -4.609375 5.69921875 C-4 3 -4 3 -1.953125 1.14453125 C-1.30859375 0.76683594 -0.6640625 0.38914062 0 0 Z " fill="#D2263B" transform="translate(284,69)"/>
<path d="M0 0 C1.47668858 0.0133035 2.95331108 0.03716415 4.4296875 0.0703125 C5.18378906 0.07933594 5.93789062 0.08835938 6.71484375 0.09765625 C8.57826004 0.1212438 10.44151343 0.15711531 12.3046875 0.1953125 C11.9746875 1.1853125 11.6446875 2.1753125 11.3046875 3.1953125 C7.22190716 4.27849912 4.12589915 4.03004435 -0.0078125 3.2578125 C-1.07644531 3.06316406 -2.14507812 2.86851562 -3.24609375 2.66796875 C-4.05433594 2.51199219 -4.86257812 2.35601562 -5.6953125 2.1953125 C-3.6953125 0.1953125 -3.6953125 0.1953125 0 0 Z " fill="#2B357C" transform="translate(130.6953125,214.8046875)"/>
<path d="M0 0 C0.33 0 0.66 0 1 0 C1.4375 2.625 1.4375 2.625 1 6 C-1.90737198 9.66581684 -4.91425526 11.72362861 -9.4375 12.875 C-10.7059375 12.936875 -10.7059375 12.936875 -12 13 C-11.34 11.68 -10.68 10.36 -10 9 C-9.01 9 -8.02 9 -7 9 C-7 8.34 -7 7.68 -7 7 C-5.68 7.33 -4.36 7.66 -3 8 C-3.33 7.01 -3.66 6.02 -4 5 C-3.01 4.67 -2.02 4.34 -1 4 C-0.26676204 1.98491642 -0.26676204 1.98491642 0 0 Z " fill="#5C6C9F" transform="translate(261,154)"/>
<path d="M0 0 C0.99 0.33 1.98 0.66 3 1 C3.12117188 1.64066406 3.24234375 2.28132812 3.3671875 2.94140625 C4.1502724 6.98332906 4.93075282 10.95087106 6.1875 14.875 C7.00159446 18.00613254 6.90361986 19.03920301 6 22 C5.49487756 20.39743892 4.99608373 18.79288208 4.5 17.1875 C4.2215625 16.29417969 3.943125 15.40085938 3.65625 14.48046875 C3 12 3 12 3 9 C2.01 8.67 1.02 8.34 0 8 C0 5.36 0 2.72 0 0 Z " fill="#673078" transform="translate(94,144)"/>
<path d="M0 0 C2.48319402 2.48319402 2.26011201 3.96666047 2.2734375 7.36132812 C2.26570312 8.04646484 2.25796875 8.73160156 2.25 9.4375 C2.25773438 10.11876953 2.26546875 10.80003906 2.2734375 11.50195312 C2.25889434 15.21409442 2.10940418 16.83589372 0 20 C0 19.01 0 18.02 0 17 C-1.65 17 -3.3 17 -5 17 C-4.34 16.67 -3.68 16.34 -3 16 C-3 14.68 -3 13.36 -3 12 C-2.01 12 -1.02 12 0 12 C0 8.04 0 4.08 0 0 Z " fill="#4176AE" transform="translate(243,230)"/>
<path d="M0 0 C0.99 0 1.98 0 3 0 C2.40984815 5.50808397 1.43336231 10.64878069 0 16 C-0.33 16 -0.66 16 -1 16 C-2.17327203 11.16025288 -2.9302313 6.26743879 -1 1.5625 C-0.67 1.046875 -0.34 0.53125 0 0 Z " fill="#D55C72" transform="translate(280,81)"/>
<path d="M0 0 C7.92 0 15.84 0 24 0 C20.59022783 3.40977217 17.29623648 3.16092136 12.6875 3.1875 C11.57761719 3.20167969 10.46773437 3.21585937 9.32421875 3.23046875 C5.9038164 2.99333157 3.19026557 2.22108501 0 1 C0 0.67 0 0.34 0 0 Z " fill="#7DB7D4" transform="translate(206,267)"/>
<path d="M0 0 C0.66 0.33 1.32 0.66 2 1 C1.67 1.66 1.34 2.32 1 3 C-4.19029942 4.25197318 -9.5601851 4.3183707 -14.875 4.5625 C-16.19371094 4.62727539 -16.19371094 4.62727539 -17.5390625 4.69335938 C-19.69255797 4.79869339 -21.84626064 4.89977649 -24 5 C-24.33 4.01 -24.66 3.02 -25 2 C-24.02160156 2.01160156 -23.04320312 2.02320313 -22.03515625 2.03515625 C-14.95486189 2.08388984 -8.01465352 2.08848072 -1 1 C-0.67 0.67 -0.34 0.34 0 0 Z " fill="#CA2A52" transform="translate(190,139)"/>
<path d="M0 0 C0.66 1.32 1.32 2.64 2 4 C3.32 3.67 4.64 3.34 6 3 C6.33 5.64 6.66 8.28 7 11 C6.34 11 5.68 11 5 11 C4.34 11.66 3.68 12.32 3 13 C2.49487756 11.39743892 1.99608373 9.79288208 1.5 8.1875 C1.2215625 7.29417969 0.943125 6.40085937 0.65625 5.48046875 C0 3 0 3 0 0 Z " fill="#5879AC" transform="translate(57,84)"/>
<path d="M0 0 C0.99 0.33 1.98 0.66 3 1 C2.65066406 1.44988281 2.30132812 1.89976563 1.94140625 2.36328125 C-2.11642238 8.09941861 -2.85950565 13.05191569 -3 20 C-3.33 20 -3.66 20 -4 20 C-4.19430855 17.3753399 -4.38073238 14.75053235 -4.5625 12.125 C-4.61857422 11.37863281 -4.67464844 10.63226563 -4.73242188 9.86328125 C-5.11328125 4.2265625 -5.11328125 4.2265625 -4 2 C-2.68 2 -1.36 2 0 2 C0 1.34 0 0.68 0 0 Z " fill="#DF723D" transform="translate(131,69)"/>
<path d="M0 0 C1.485 0.99 1.485 0.99 3 2 C7.25515489 4.42044236 10.14552368 4.54808604 15 4 C17.79897943 2.53888984 17.79897943 2.53888984 20 1 C20.66 1.33 21.32 1.66 22 2 C20.8984375 3.98046875 20.8984375 3.98046875 19 6 C16.0390625 6.42578125 16.0390625 6.42578125 12.625 6.3125 C11.50351563 6.28800781 10.38203125 6.26351563 9.2265625 6.23828125 C6.3944296 6.02912858 3.76305948 5.63643505 1 5 C0.67 3.35 0.34 1.7 0 0 Z " fill="#8BC4DC" transform="translate(207,250)"/>
<path d="M0 0 C0.99 0.495 0.99 0.495 2 1 C2 2.32 2 3.64 2 5 C2.66 5 3.32 5 4 5 C4 6.98 4 8.96 4 11 C4.99 11.33 5.98 11.66 7 12 C7 13.65 7 15.3 7 17 C6.01 17.33 5.02 17.66 4 18 C2.68 12.06 1.36 6.12 0 0 Z " fill="#A32F74" transform="translate(90,126)"/>
<path d="M0 0 C-2.95600447 2.49618156 -5.77886965 4.85257977 -9 7 C-9.99 6.67 -10.98 6.34 -12 6 C-11.34 5.01 -10.68 4.02 -10 3 C-9.34 3 -8.68 3 -8 3 C-7.67 2.01 -7.34 1.02 -7 0 C-3.86650268 -1.04449911 -3.01031744 -0.93423645 0 0 Z " fill="#58A2D0" transform="translate(156,261)"/>
<path d="M0 0 C1.32 0 2.64 0 4 0 C3.83242187 0.61746094 3.66484375 1.23492187 3.4921875 1.87109375 C1.97494088 8.18015091 2.05721009 12.81296137 4 19 C2.68 18.34 1.36 17.68 0 17 C0 11.39 0 5.78 0 0 Z " fill="#7CAECD" transform="translate(120,232)"/>
<path d="M0 0 C0 0.33 0 0.66 0 1 C-1.15628906 1.07347656 -1.15628906 1.07347656 -2.3359375 1.1484375 C-3.33882812 1.22320312 -4.34171875 1.29796875 -5.375 1.375 C-6.37273437 1.44460937 -7.37046875 1.51421875 -8.3984375 1.5859375 C-11.15508879 1.76363964 -11.15508879 1.76363964 -13 4 C-16.09994848 5.92410596 -18.37739148 6.20125603 -22 6 C-16.31963658 -1.01691952 -8.20098105 -0.36359029 0 0 Z " fill="#7083AC" transform="translate(224,213)"/>
<path d="M0 0 C1.32 0 2.64 0 4 0 C4 1.32 4 2.64 4 4 C-4.25 4 -12.5 4 -21 4 C-21 3.67 -21 3.34 -21 3 C-11.1 2.505 -11.1 2.505 -1 2 C-0.67 1.34 -0.34 0.68 0 0 Z " fill="#CC3777" transform="translate(229,163)"/>
<path d="M0 0 C0.99 0.33 1.98 0.66 3 1 C-1.33333333 5.33333333 -5.66666667 9.66666667 -10 14 C-8.91107438 7.82942149 -8.91107438 7.82942149 -6.34375 5.4921875 C-5.10359043 4.64338976 -3.84203858 3.8247761 -2.55859375 3.04296875 C-0.83005345 2.07230142 -0.83005345 2.07230142 0 0 Z " fill="#BA2F52" transform="translate(271,104)"/>
<path d="M0 0 C8 -0.30769231 8 -0.30769231 11 2 C11.75 4.125 11.75 4.125 12 6 C11.17242187 5.50886719 11.17242187 5.50886719 10.328125 5.0078125 C7.61219077 3.83212285 5.69448241 3.79751362 2.75 3.875 C1.41195312 3.90207031 1.41195312 3.90207031 0.046875 3.9296875 C-0.62859375 3.95289062 -1.3040625 3.97609375 -2 4 C-1.34 2.68 -0.68 1.36 0 0 Z " fill="#E19F4F" transform="translate(136,65)"/>
<path d="M0 0 C0.99 0 1.98 0 3 0 C1.67367286 5.63689034 -2.46631765 7.93185683 -7 11 C-7.66 10.67 -8.32 10.34 -9 10 C-7.8125 7.5625 -7.8125 7.5625 -6 5 C-3.3125 4.1875 -3.3125 4.1875 -1 4 C-0.67 2.68 -0.34 1.36 0 0 Z " fill="#6AADD2" transform="translate(239,256)"/>
<path d="M0 0 C0 0.99 0 1.98 0 3 C-0.66 3 -1.32 3 -2 3 C-2.33 3.66 -2.66 4.32 -3 5 C-3.804375 4.814375 -4.60875 4.62875 -5.4375 4.4375 C-6.283125 4.293125 -7.12875 4.14875 -8 4 C-8.33 4.33 -8.66 4.66 -9 5 C-11.67058851 5.14115161 -14.32432238 5.04247107 -17 5 C-17 4.67 -17 4.34 -17 4 C-14.5424552 3.33030409 -12.08405076 2.6641232 -9.625 2 C-8.57699219 1.71382812 -8.57699219 1.71382812 -7.5078125 1.421875 C-2.2265625 0 -2.2265625 0 0 0 Z " fill="#D95A73" transform="translate(198,136)"/>
<path d="M0 0 C2.475 0.495 2.475 0.495 5 1 C4.835 1.99 4.67 2.98 4.5 4 C3.91525483 8.02732942 3.92867976 11.93474623 4 16 C1.62526776 13.62526776 1.4828067 12.37628347 0.875 9.125 C0.70742187 8.26132813 0.53984375 7.39765625 0.3671875 6.5078125 C0 4 0 4 0 0 Z " fill="#A42D6C" transform="translate(77,77)"/>
<path d="M0 0 C2.475 0.99 2.475 0.99 5 2 C5 3.98 5 5.96 5 8 C4.236875 7.360625 3.47375 6.72125 2.6875 6.0625 C-1.73944307 3.04364485 -6.79735295 3.18514758 -12 3 C-12 2.67 -12 2.34 -12 2 C-8.04 2 -4.08 2 0 2 C0 1.34 0 0.68 0 0 Z " fill="#7390B8" transform="translate(225,225)"/>
<path d="M0 0 C2.00378112 1.65529745 2.94765447 2.86165825 3.875 5.3125 C4.04103779 8.88231246 2.76982962 10.95589306 1 14 C0.67 14 0.34 14 0 14 C0.33 11.03 0.66 8.06 1 5 C0.01 4.67 -0.98 4.34 -2 4 C-1.34 3.67 -0.68 3.34 0 3 C0 2.01 0 1.02 0 0 Z " fill="#5C73A1" transform="translate(250,190)"/>
<path d="M0 0 C0.33 0 0.66 0 1 0 C1.33 4.62 1.66 9.24 2 14 C1.01 14.33 0.02 14.66 -1 15 C-1.66 11.7 -2.32 8.4 -3 5 C-2.01 5.495 -2.01 5.495 -1 6 C-0.67 4.02 -0.34 2.04 0 0 Z " fill="#4C558D" transform="translate(74,131)"/>
<path d="M0 0 C4.93163163 0.49316316 8.79663996 1.29783997 13 4 C13.875 6.1875 13.875 6.1875 14 8 C12.125 7.6875 12.125 7.6875 10 7 C9.34 6.01 8.68 5.02 8 4 C4.93443402 3.26656572 4.93443402 3.26656572 2 3 C2 2.34 2 1.68 2 1 C1.34 0.67 0.68 0.34 0 0 Z " fill="#D22F4A" transform="translate(89,77)"/>
<path d="M0 0 C2 1 2 1 4 4 C4.484375 5.90234375 4.484375 5.90234375 4.75 7.9375 C4.84796875 8.60652344 4.9459375 9.27554688 5.046875 9.96484375 C4.99023093 12.42414063 4.22482166 13.89424891 3 16 C2.49411853 14.08487728 1.99551609 12.16783078 1.5 10.25 C1.2215625 9.18265625 0.943125 8.1153125 0.65625 7.015625 C0 4 0 4 0 0 Z " fill="#555F8E" transform="translate(67,119)"/>
<path d="M0 0 C0.33 0 0.66 0 1 0 C1.125 2.375 1.125 2.375 1 5 C-1 7 -1 7 -3.75 7.23046875 C-4.8225 7.21628906 -5.895 7.20210938 -7 7.1875 C-8.0725 7.18105469 -9.145 7.17460938 -10.25 7.16796875 C-13 7 -13 7 -15 6 C-14.67 5.34 -14.34 4.68 -14 4 C-13.34 4.33 -12.68 4.66 -12 5 C-7.3521462 5.41314256 -4.75559848 4.78987316 -1 2 C-0.67 1.34 -0.34 0.68 0 0 Z " fill="#DA774A" transform="translate(221,91)"/>
<path d="M0 0 C0.33 0 0.66 0 1 0 C1.33 5.61 1.66 11.22 2 17 C-3 15 -3 15 -4 13 C-2.68 13.33 -1.36 13.66 0 14 C-0.165 13.319375 -0.33 12.63875 -0.5 11.9375 C-1.18082756 7.93763809 -1.85791887 3.71583773 0 0 Z " fill="#E4673B" transform="translate(126,76)"/>
<path d="M0 0 C1.30889982 3.92669945 0.26061271 6.71748259 -0.8125 10.5625 C-0.99103516 11.24763672 -1.16957031 11.93277344 -1.35351562 12.63867188 C-2.74032387 17.74032387 -2.74032387 17.74032387 -5 20 C-4.34 15.05 -3.68 10.1 -3 5 C-2.34 5 -1.68 5 -1 5 C-0.67 3.35 -0.34 1.7 0 0 Z " fill="#7984AB" transform="translate(268,137)"/>
<path d="M0 0 C1.34882814 2.69765628 0.80338265 4.15164334 0 7 C-0.99 7.495 -0.99 7.495 -2 8 C-2.72159424 9.64363134 -3.39351421 11.31050386 -4 13 C-4.66 13 -5.32 13 -6 13 C-6.33 13.99 -6.66 14.98 -7 16 C-7.33 15.01 -7.66 14.02 -8 13 C-6.74282547 10.95127113 -5.39355764 8.95851344 -4 7 C-2.62217581 4.68970893 -1.31451404 2.3473465 0 0 Z " fill="#6E327A" transform="translate(258,123)"/>
<path d="M0 0 C1.32 0 2.64 0 4 0 C4.66 3.96 5.32 7.92 6 12 C5.34 12 4.68 12 4 12 C4 11.01 4 10.02 4 9 C3.34 9 2.68 9 2 9 C2 7.35 2 5.7 2 4 C1.34 4 0.68 4 0 4 C0 2.68 0 1.36 0 0 Z " fill="#2B87C0" transform="translate(192,246)"/>
<path d="M0 0 C0.66 0.66 1.32 1.32 2 2 C1.67 2.99 1.34 3.98 1 5 C1.99 5.99 2.98 6.98 4 8 C1.36 7.67 -1.28 7.34 -4 7 C-3.39816251 4.97954558 -2.72693904 2.97888961 -2 1 C-1.34 0.67 -0.68 0.34 0 0 Z " fill="#2787C7" transform="translate(152,243)"/>
<path d="M0 0 C0.99 0.33 1.98 0.66 3 1 C3.33 3.31 3.66 5.62 4 8 C2.02 8 0.04 8 -2 8 C-1.125 1.125 -1.125 1.125 0 0 Z " fill="#304686" transform="translate(157,227)"/>
<path d="M0 0 C2.41076315 2.41076315 3.54391773 4.82291081 5.0625 7.875 C5.58972656 8.92429688 6.11695313 9.97359375 6.66015625 11.0546875 C7.73522278 13.41795327 8.50474795 15.46871174 9 18 C8.67 17.34 8.34 16.68 8 16 C7.34 16 6.68 16 6 16 C4.99303432 13.89915791 3.9946411 11.79420511 3 9.6875 C2.443125 8.51574219 1.88625 7.34398437 1.3125 6.13671875 C0 3 0 3 0 0 Z " fill="#D0286C" transform="translate(126,134)"/>
<path d="M0 0 C0.66 0.33 1.32 0.66 2 1 C2 1.66 2 2.32 2 3 C2.639375 3.144375 3.27875 3.28875 3.9375 3.4375 C6 4 6 4 7 5 C8.51469448 5.23192865 10.03754562 5.41215238 11.5625 5.5625 C12.38878906 5.64628906 13.21507812 5.73007813 14.06640625 5.81640625 C14.70449219 5.87699219 15.34257812 5.93757813 16 6 C16 6.33 16 6.66 16 7 C7.5309417 8.72107623 7.5309417 8.72107623 3.77734375 6.953125 C1.875 5.5625 1.875 5.5625 -1 3 C-0.67 2.01 -0.34 1.02 0 0 Z " fill="#E46C48" transform="translate(129,91)"/>
<path d="M0 0 C2.12438339 -0.08078641 4.2496323 -0.13909141 6.375 -0.1875 C7.55835938 -0.22230469 8.74171875 -0.25710937 9.9609375 -0.29296875 C11.46527344 -0.14794922 11.46527344 -0.14794922 13 0 C13.66 0.99 14.32 1.98 15 3 C12.68690295 2.88658363 10.37449815 2.75896193 8.0625 2.625 C6.13083984 2.52058594 6.13083984 2.52058594 4.16015625 2.4140625 C2.59587891 2.20910156 2.59587891 2.20910156 1 2 C0.67 1.34 0.34 0.68 0 0 Z " fill="#274382" transform="translate(214,215)"/>
<path d="M0 0 C6.27 0 12.54 0 19 0 C19 0.33 19 0.66 19 1 C10.09 1.99 10.09 1.99 1 3 C0.67 2.01 0.34 1.02 0 0 Z " fill="#276F76" transform="translate(56,76)"/>
<path d="M0 0 C5.21979128 -0.1799928 9.07262981 0.02905192 14 2 C14 2.66 14 3.32 14 4 C11.85270859 3.71926927 9.70716807 3.42511501 7.5625 3.125 C6.36753906 2.96257812 5.17257813 2.80015625 3.94140625 2.6328125 C2.97074219 2.42398438 2.00007813 2.21515625 1 2 C0.67 1.34 0.34 0.68 0 0 Z " fill="#C3264F" transform="translate(77,76)"/>
<path d="M0 0 C1.48206495 0.254496 2.96068615 0.52911762 4.4375 0.8125 C5.67306641 1.03873047 5.67306641 1.03873047 6.93359375 1.26953125 C7.95646484 1.63111328 7.95646484 1.63111328 9 2 C9.33 2.99 9.66 3.98 10 5 C11.49985609 6.66710346 11.49985609 6.66710346 13 8 C8.27626146 6.37621488 4.05818166 3.89006982 0 1 C0 0.67 0 0.34 0 0 Z " fill="#F35D3C" transform="translate(147,106)"/>
<path d="M0 0 C0.99 0.33 1.98 0.66 3 1 C3.33 4.63 3.66 8.26 4 12 C1.02449969 8.9315153 0.03525487 7.53763669 -0.25 3.1875 C-0.1675 2.135625 -0.085 1.08375 0 0 Z " fill="#6F317D" transform="translate(80,93)"/>
<path d="M0 0 C0 0.99 0 1.98 0 3 C-3.3 3 -6.6 3 -10 3 C-10.33 2.34 -10.66 1.68 -11 1 C-9.5437328 0.63743142 -8.08488815 0.28520207 -6.625 -0.0625 C-5.40683594 -0.35833984 -5.40683594 -0.35833984 -4.1640625 -0.66015625 C-2 -1 -2 -1 0 0 Z " fill="#E4223B" transform="translate(196,141)"/>
<path d="M0 0 C1.31534494 3.65857532 0.65468309 6.08026481 -0.4375 9.75 C-0.86869141 11.22726563 -0.86869141 11.22726563 -1.30859375 12.734375 C-1.53675781 13.48203125 -1.76492188 14.2296875 -2 15 C-2.33 15 -2.66 15 -3 15 C-2.88658363 12.68690295 -2.75896193 10.37449815 -2.625 8.0625 C-2.55539062 6.77472656 -2.48578125 5.48695312 -2.4140625 4.16015625 C-2.27742188 3.11730469 -2.14078125 2.07445313 -2 1 C-1.34 0.67 -0.68 0.34 0 0 Z " fill="#737AA2" transform="translate(272,122)"/>
<path d="M0 0 C2.30441554 3.45662331 2.25860135 4.94857881 2 9 C1.67 9.66 1.34 10.32 1 11 C0.34 11 -0.32 11 -1 11 C-1.0270043 9.54176788 -1.04639787 8.08339325 -1.0625 6.625 C-1.07410156 5.81289062 -1.08570313 5.00078125 -1.09765625 4.1640625 C-1 2 -1 2 0 0 Z " fill="#304E93" transform="translate(193,232)"/>
<path d="M0 0 C0.66 0.33 1.32 0.66 2 1 C2 1.99 2 2.98 2 4 C1.01 4.33 0.02 4.66 -1 5 C-1.33 5.66 -1.66 6.32 -2 7 C-2.99 7 -3.98 7 -5 7 C-3.70700306 4.11562221 -2.34058637 2.12780579 0 0 Z " fill="#5971A4" transform="translate(200,219)"/>
<path d="M0 0 C2.0625 2.25 2.0625 2.25 4 5 C3.75 7.3125 3.75 7.3125 3 9 C2.01 9 1.02 9 0 9 C-1.10844919 5.67465243 -0.84454356 3.37817425 0 0 Z " fill="#4A4486" transform="translate(99,164)"/>
<path d="M0 0 C2.96404505 2.80804268 5.44499019 5.18315774 7 9 C4.525 8.01 4.525 8.01 2 7 C2 6.34 2 5.68 2 5 C1.01 4.67 0.02 4.34 -1 4 C-0.67 2.68 -0.34 1.36 0 0 Z " fill="#D55373" transform="translate(143,121)"/>
<path d="M0 0 C6.41923331 0.29112169 10.62100206 1.45215029 16 5 C14 6 14 6 11.50390625 5.29296875 C10.53324219 4.92816406 9.56257813 4.56335938 8.5625 4.1875 C7.59441406 3.83042969 6.62632813 3.47335938 5.62890625 3.10546875 C3 2 3 2 0 0 Z " fill="#EE6644" transform="translate(93,77)"/>
<path d="M0 0 C0.99 0 1.98 0 3 0 C3.50423019 5.29441695 2.18923033 7.81413519 -1 12 C-1.625 10.1875 -1.625 10.1875 -2 8 C-1.34 7.01 -0.68 6.02 0 5 C0.66 5 1.32 5 2 5 C2 3.68 2 2.36 2 1 C1.34 0.67 0.68 0.34 0 0 Z " fill="#D7606C" transform="translate(207,118)"/>
<path d="M0 0 C1.45823212 -0.0270043 2.91660675 -0.04639787 4.375 -0.0625 C5.18710938 -0.07410156 5.99921875 -0.08570312 6.8359375 -0.09765625 C9 0 9 0 11 1 C11 2.65 11 4.3 11 6 C10.67 5.34 10.34 4.68 10 4 C7.65613191 3.08968728 7.65613191 3.08968728 4.9375 2.375 C4.01839844 2.11460938 3.09929687 1.85421875 2.15234375 1.5859375 C1.08693359 1.29589844 1.08693359 1.29589844 0 1 C0 0.67 0 0.34 0 0 Z " fill="#E19946" transform="translate(210,66)"/>
<path d="M0 0 C-0.33 0.99 -0.66 1.98 -1 3 C-3.88211302 3.96070434 -5.69850044 4.10581883 -8.6875 4.0625 C-9.89986328 4.04896484 -9.89986328 4.04896484 -11.13671875 4.03515625 C-12.05904297 4.01775391 -12.05904297 4.01775391 -13 4 C-13 3.67 -13 3.34 -13 3 C-11.2092015 2.49689942 -9.41733089 1.99761372 -7.625 1.5 C-6.62726563 1.2215625 -5.62953125 0.943125 -4.6015625 0.65625 C-2 0 -2 0 0 0 Z " fill="#318EC1" transform="translate(231,264)"/>
<path d="M0 0 C0.66 0.33 1.32 0.66 2 1 C2.4140625 3.06640625 2.4140625 3.06640625 2.625 5.5625 C2.69976562 6.38878906 2.77453125 7.21507812 2.8515625 8.06640625 C2.90054688 8.70449219 2.94953125 9.34257812 3 10 C2.67 8.68 2.34 7.36 2 6 C1.01 6 0.02 6 -1 6 C-1.33 5.01 -1.66 4.02 -2 3 C-1.34 2.01 -0.68 1.02 0 0 Z " fill="#2A5999" transform="translate(241,229)"/>
<path d="M0 0 C1.65 0 3.3 0 5 0 C7 3.75 7 3.75 7 6 C3.63279613 4.60667426 2.0140476 3.0210714 0 0 Z " fill="#5B71A2" transform="translate(91,194)"/>
<path d="M0 0 C0.66 1.32 1.32 2.64 2 4 C2.99 4 3.98 4 5 4 C5 6.31 5 8.62 5 11 C0 4.63636364 0 4.63636364 0 0 Z " fill="#74BAD8" transform="translate(108,248)"/>
<path d="M0 0 C1.32 1.32 2.64 2.64 4 4 C3.67 4.99 3.34 5.98 3 7 C2.01 7.33 1.02 7.66 0 8 C-1.125 2.25 -1.125 2.25 0 0 Z " fill="#4986C3" transform="translate(111,226)"/>
<path d="M0 0 C0.66 0 1.32 0 2 0 C2 0.99 2 1.98 2 3 C2.66 3 3.32 3 4 3 C3.67 5.31 3.34 7.62 3 10 C1.11608215 6.73454239 0.50712033 3.71888239 0 0 Z " fill="#636D99" transform="translate(76,154)"/>
<path d="M0 0 C0.66 0.33 1.32 0.66 2 1 C1.67 2.65 1.34 4.3 1 6 C-0.32 6 -1.64 6 -3 6 C-2.42655063 3.13275314 -2.1385485 2.1385485 0 0 Z " fill="#DA314D" transform="translate(204,130)"/>
<path d="M0 0 C1.65 0 3.3 0 5 0 C5 0.66 5 1.32 5 2 C5.99 2.33 6.98 2.66 8 3 C3.545 3.495 3.545 3.495 -1 4 C-0.67 2.68 -0.34 1.36 0 0 Z " fill="#D14764" transform="translate(143,116)"/>
<path d="M0 0 C3.26954202 0.56371414 4.82575883 1.49962266 7 4 C6.01 4 5.02 4 4 4 C3.67 5.65 3.34 7.3 3 9 C1.35173889 6.03312999 0.55728913 3.34373475 0 0 Z " fill="#81BD78" transform="translate(43,34)"/>
<path d="M0 0 C1.45606519 4.52092968 0.27032841 7.51648796 -1 12 C-1.33 12 -1.66 12 -2 12 C-2 8.33333333 -2 4.66666667 -2 1 C-1.34 0.67 -0.68 0.34 0 0 Z " fill="#C63F47" transform="translate(284,69)"/>
<path d="M0 0 C-0.66 1.32 -1.32 2.64 -2 4 C-4.31 4 -6.62 4 -9 4 C-6.77642026 0.66463039 -4.04815944 -2.02407972 0 0 Z " fill="#469CCA" transform="translate(146,265)"/>
<path d="M0 0 C0.66 0 1.32 0 2 0 C2 0.66 2 1.32 2 2 C5.3 2.99 8.6 3.98 12 5 C12 5.33 12 5.66 12 6 C8.92545953 5.92909865 5.98877701 5.7524935 3 5 C0.9375 2.4375 0.9375 2.4375 0 0 Z " fill="#318FC1" transform="translate(203,262)"/>
<path d="M0 0 C2.79872437 2.52788007 4.45773019 4.20411134 5 8 C2.5 6.8125 2.5 6.8125 0 5 C-0.3125 2.3125 -0.3125 2.3125 0 0 Z " fill="#5C7FAA" transform="translate(238,222)"/>
<path d="M0 0 C0.66 0.33 1.32 0.66 2 1 C0.41641358 4.16717283 -0.45263699 5.73268318 -3.6875 7.3125 C-4.450625 7.539375 -5.21375 7.76625 -6 8 C-4.55746343 4.63408134 -2.66735273 2.48952921 0 0 Z " fill="#7283AD" transform="translate(118,218)"/>
<path d="M0 0 C0.99 0.33 1.98 0.66 3 1 C0.66666667 3.33333333 -1.66666667 5.66666667 -4 8 C-4.25 5.6875 -4.25 5.6875 -4 3 C-2.1875 1.125 -2.1875 1.125 0 0 Z " fill="#E49B4B" transform="translate(206,67)"/>
<path d="M0 0 C4.875 3.625 4.875 3.625 6 7 C4.35 6.67 2.7 6.34 1 6 C0.67 4.02 0.34 2.04 0 0 Z " fill="#D14F6D" transform="translate(150,130)"/>
<path d="M0 0 C0.33 0 0.66 0 1 0 C1.33 2.31 1.66 4.62 2 7 C1.01 7.495 1.01 7.495 0 8 C-0.66 7.67 -1.32 7.34 -2 7 C-1.34 4.69 -0.68 2.38 0 0 Z " fill="#D9263B" transform="translate(211,119)"/>
<path d="M0 0 C0.33 0.66 0.66 1.32 1 2 C2.32 1.67 3.64 1.34 5 1 C5 2.32 5 3.64 5 5 C4.34 5 3.68 5 3 5 C2.34 5.66 1.68 6.32 1 7 C0.67 4.69 0.34 2.38 0 0 Z " fill="#6783B3" transform="translate(59,90)"/>
<path d="M0 0 C0.99 0.33 1.98 0.66 3 1 C1.35 3.64 -0.3 6.28 -2 9 C-3.04449911 5.86650268 -2.93423645 5.01031744 -2 2 C-1.34 2 -0.68 2 0 2 C0 1.34 0 0.68 0 0 Z " fill="#DD8C52" transform="translate(131,69)"/>
<path d="M0 0 C-1.32 1.32 -2.64 2.64 -4 4 C-4.66 3.67 -5.32 3.34 -6 3 C-5.67 2.34 -5.34 1.68 -5 1 C-5.66 0.67 -6.32 0.34 -7 0 C-3.86650268 -1.04449911 -3.01031744 -0.93423645 0 0 Z " fill="#70B2D6" transform="translate(156,261)"/>
<path d="M0 0 C-0.33 0.33 -0.66 0.66 -1 1 C-0.01 1.99 0.98 2.98 2 4 C-0.35171131 3.40138258 -2.6859378 2.73075648 -5 2 C-5.33 1.34 -5.66 0.68 -6 0 C-3 -1 -3 -1 0 0 Z " fill="#6C83A8" transform="translate(107,202)"/>
<path d="M0 0 C0 3 0 3 -1.875 5.1875 C-4 7 -4 7 -6 7 C-4.52307692 2.32307692 -4.52307692 2.32307692 -1.875 0.6875 C-1.25625 0.460625 -0.6375 0.23375 0 0 Z " fill="#B3347F" transform="translate(239,158)"/>
<path d="M0 0 C0.66 0.33 1.32 0.66 2 1 C0.02 3.31 -1.96 5.62 -4 8 C-4.33 7.34 -4.66 6.68 -5 6 C-3.86695008 2.60085025 -2.87481525 1.94745549 0 0 Z " fill="#9E315E" transform="translate(266,110)"/>
<path d="M0 0 C0.33 0.99 0.66 1.98 1 3 C-2.3 2.34 -5.6 1.68 -9 1 C-9 0.67 -9 0.34 -9 0 C-3.375 -1.125 -3.375 -1.125 0 0 Z " fill="#9CCC8D" transform="translate(32,20)"/>
</svg>
