<?xml version="1.0" encoding="UTF-8"?>
<svg version="1.1" xmlns="http://www.w3.org/2000/svg" width="949" height="255">
<path d="M0 0 C5.09063156 2.95821095 8.53857723 7.03520694 11.0625 12.3125 C12.38808019 18.94040097 12.46856205 24.52244997 9.078125 30.52734375 C5.00339462 36.12437508 -0.69197216 39.92708186 -6.6484375 43.296875 C-8.62164848 44.49747896 -8.62164848 44.49747896 -10.3125 47.4375 C-10.44864767 50.9773393 -10.22228012 53.38738146 -7.84375 56.1328125 C-4.8953215 58.73081303 -1.78110853 61.08174286 1.34765625 63.45703125 C13.88560231 73.24403556 22.78034427 85.75966516 25.40234375 101.6953125 C27.01718536 117.22433732 24.78645051 132.42254547 15.6875 145.4375 C7.30040323 155.63104839 7.30040323 155.63104839 3.6875 157.4375 C4.92113281 158.03884766 4.92113281 158.03884766 6.1796875 158.65234375 C19.66250026 165.51830267 30.33341101 174.47599603 35.5625 189.1875 C39.47772903 202.78271246 38.46048432 216.50329084 32 229.125 C24.99876947 241.06321618 15.81387037 248.21036378 2.6875 252.4375 C-10.07781706 255.44359456 -22.32481543 252.97909237 -33.6875 246.6875 C-40.18175748 242.48471223 -45.51977961 237.07757749 -47.875 229.5703125 C-49.24911651 222.87149453 -48.95015736 217.17158966 -45.51171875 211.1875 C-42.29802593 206.49781146 -38.70132037 203.26584977 -33.3125 201.4375 C-26.05518614 200.57533869 -19.88153995 200.50898563 -13.890625 205.02734375 C-9.00791497 209.39035939 -6.58206733 214.04803817 -5.3125 220.4375 C-5.00208015 227.57715652 -7.40352531 232.67731965 -11.6875 238.21484375 C-14.67721963 242.09638315 -15.93699048 244.31667807 -15.3125 249.4375 C-4.6404019 251.48982656 5.59188833 249.39969521 14.6875 243.4375 C21.43300381 238.35121235 26.30077817 233.18961612 29.6875 225.4375 C30.07808594 224.64085937 30.46867187 223.84421875 30.87109375 223.0234375 C34.99502772 213.57691748 35.64582858 201.63128959 32.0625 191.875 C31.31833337 190.37137565 30.52787781 188.8895452 29.6875 187.4375 C29.32140625 186.73367187 28.9553125 186.02984375 28.578125 185.3046875 C24.39353104 178.51118002 17.16768791 174.70288442 9.6875 172.4375 C1.25223572 171.13087845 -6.02846413 171.95501639 -13.3125 176.4375 C-14.09882812 176.911875 -14.88515625 177.38625 -15.6953125 177.875 C-24.22392684 183.43597738 -31.25504338 190.76877429 -37.8125 198.5 C-45.39886702 207.29657319 -55.33925018 217.40593776 -67.3125 219.4375 C-76.21523935 220.03101596 -84.54763829 220.43253128 -92.3125 215.4375 C-93.00730469 215.01339844 -93.70210937 214.58929688 -94.41796875 214.15234375 C-102.23647746 208.88621875 -106.60178536 201.3226202 -109.3125 192.4375 C-109.3125 191.1175 -109.3125 189.7975 -109.3125 188.4375 C-128.1225 188.4375 -146.9325 188.4375 -166.3125 188.4375 C-165.3125 184.4375 -165.3125 184.4375 -162.9375 182.9375 C-162.07125 182.4425 -161.205 181.9475 -160.3125 181.4375 C-157.25912798 177.94793198 -156.1911206 174.96786897 -156.17205811 170.36541748 C-156.16634796 169.53840836 -156.16063782 168.71139923 -156.15475464 167.85932922 C-156.15363678 166.95538925 -156.15251892 166.05144928 -156.15136719 165.12011719 C-156.14640228 164.16531967 -156.14143738 163.21052216 -156.13632202 162.22679138 C-156.12169692 159.06264529 -156.11489733 155.89854936 -156.109375 152.734375 C-156.10362325 150.53582762 -156.09786552 148.33728026 -156.09210205 146.13873291 C-156.08159067 141.52526618 -156.07574909 136.91181687 -156.07226562 132.29833984 C-156.06678471 126.3924503 -156.0427657 120.48679174 -156.01429367 114.58097458 C-155.99565006 110.03759086 -155.99046074 105.49426255 -155.98892975 100.95084381 C-155.98590592 98.7739867 -155.97788652 96.59713051 -155.96474457 94.42031097 C-155.94765054 91.37085015 -155.94957283 88.32195051 -155.95605469 85.27246094 C-155.9468399 84.37661789 -155.93762512 83.48077484 -155.9281311 82.55778503 C-155.96443428 77.09330422 -156.71447888 73.2755298 -159.3125 68.4375 C-161.34196853 66.51413031 -161.34196853 66.51413031 -163.3125 65.4375 C-163.33828125 66.13875 -163.3640625 66.84 -163.390625 67.5625 C-163.82961705 74.9056397 -164.62836885 81.09624838 -170.28515625 86.2265625 C-177.52308483 91.76994882 -183.15542315 92.33111825 -192.3125 91.4375 C-198.32692009 89.22793408 -202.50204819 84.97434693 -205.40625 79.30078125 C-206.59154508 75.55586189 -206.52767475 72.0059823 -206.4375 68.125 C-206.42847656 67.38443359 -206.41945313 66.64386719 -206.41015625 65.88085938 C-206.38674213 64.06626533 -206.35087615 62.25183929 -206.3125 60.4375 C-207.72952513 60.57980808 -209.1461096 60.72650746 -210.5625 60.875 C-211.35140625 60.95621094 -212.1403125 61.03742187 -212.953125 61.12109375 C-215.13838881 61.41415065 -217.18138974 61.88506275 -219.3125 62.4375 C-219.27530578 77.19777747 -219.21540469 91.95781749 -219.12859726 106.71788979 C-219.08881668 113.57153329 -219.05641932 120.42506214 -219.04150391 127.27880859 C-219.02709001 133.89252231 -218.99196758 140.50591692 -218.94419098 147.11948776 C-218.92934884 149.64322192 -218.92145737 152.1670068 -218.92061615 154.69078445 C-218.9182534 158.22474343 -218.89122709 161.75771489 -218.85839844 165.29150391 C-218.8634288 166.33591644 -218.86845917 167.38032898 -218.87364197 168.45639038 C-218.78805061 174.40819559 -218.34262459 177.93997078 -214.3125 182.4375 C-211.21235071 184.32318694 -211.21235071 184.32318694 -208.3125 185.4375 C-208.3125 186.4275 -208.3125 187.4175 -208.3125 188.4375 C-229.4325 188.4375 -250.5525 188.4375 -272.3125 188.4375 C-272.3125 187.4475 -272.3125 186.4575 -272.3125 185.4375 C-270.6328125 184.15625 -270.6328125 184.15625 -268.4375 182.9375 C-265.37459764 181.22490943 -264.33245371 180.46743057 -262.3125 177.4375 C-262.00729765 175.39752273 -262.00729765 175.39752273 -262.04507446 173.13090515 C-262.03227951 171.81249634 -262.03227951 171.81249634 -262.01922607 170.467453 C-262.02013245 169.50583755 -262.02103882 168.54422211 -262.02197266 167.5534668 C-262.01525543 166.53854156 -262.00853821 165.52361633 -262.00161743 164.47793579 C-261.9825799 161.11414731 -261.97871016 157.75055779 -261.9765625 154.38671875 C-261.97013801 152.05125343 -261.96340992 149.71578893 -261.95639038 147.38032532 C-261.9444028 142.48017511 -261.94071103 137.58009548 -261.94189453 132.67993164 C-261.94209767 126.40168494 -261.91480675 120.12389115 -261.88035011 113.84575176 C-261.85810777 109.02016625 -261.8540562 104.19469013 -261.85511398 99.36905861 C-261.85275358 97.05460869 -261.84390544 94.74015596 -261.82844925 92.42575645 C-261.80884618 89.18675466 -261.81460589 85.94873451 -261.82666016 82.7097168 C-261.81542114 81.75417404 -261.80418213 80.79863129 -261.79260254 79.81413269 C-261.8456293 74.20488209 -262.46023416 70.82594051 -266.3125 66.4375 C-269.41264929 64.55181306 -269.41264929 64.55181306 -272.3125 63.4375 C-272.3125 62.7775 -272.3125 62.1175 -272.3125 61.4375 C-262.1540276 59.35532864 -251.94963784 57.73269192 -241.6875 56.25 C-240.46643555 56.07114258 -239.24537109 55.89228516 -237.98730469 55.70800781 C-236.82360352 55.54268555 -235.65990234 55.37736328 -234.4609375 55.20703125 C-233.42114746 55.05854736 -232.38135742 54.91006348 -231.31005859 54.75708008 C-223.07407292 53.87901319 -223.07407292 53.87901319 -220.4375 55.8125 C-219.3125 57.4375 -219.3125 57.4375 -219.3125 59.4375 C-218.35730469 58.96699219 -217.40210938 58.49648438 -216.41796875 58.01171875 C-204.46747545 52.21344745 -191.47942769 46.20784934 -177.921875 50.12890625 C-173.15066201 52.30508928 -169.73130962 55.50586894 -166.3125 59.4375 C-166.3125 60.0975 -166.3125 60.7575 -166.3125 61.4375 C-165.16217285 61.13408691 -164.0118457 60.83067383 -162.82666016 60.51806641 C-158.6048943 59.46445031 -154.39199128 58.75299759 -150.0859375 58.1484375 C-149.33462555 58.04028717 -148.5833136 57.93213684 -147.80923462 57.82070923 C-146.23477077 57.59520706 -144.6600069 57.37179043 -143.08496094 57.15039062 C-140.68590508 56.81227522 -138.28826737 56.46516912 -135.890625 56.1171875 C-134.35163919 55.89789859 -132.81257905 55.67913061 -131.2734375 55.4609375 C-130.20916031 55.30629532 -130.20916031 55.30629532 -129.12338257 55.14852905 C-118.46570294 53.66869804 -118.46570294 53.66869804 -114.3125 56.4375 C-113.93332577 58.53088951 -113.93332577 58.53088951 -113.92723083 61.16879272 C-113.91758301 62.16704575 -113.90793518 63.16529877 -113.897995 64.19380188 C-113.90257217 65.29306503 -113.90714935 66.39232819 -113.91186523 67.52490234 C-113.90488617 68.67944412 -113.8979071 69.8339859 -113.89071655 71.02351379 C-113.87064916 74.85689476 -113.87123967 78.69000853 -113.87109375 82.5234375 C-113.859331 85.17902801 -113.84621012 87.83457341 -113.83106995 90.49014282 C-113.79004945 98.21290806 -113.77148275 105.93565099 -113.75489807 113.65850067 C-113.73256095 123.48158008 -113.69900255 133.3045935 -113.64769894 143.12756503 C-113.62456311 147.71579944 -113.61800284 152.30389607 -113.61460876 156.8921814 C-113.60483412 159.29189261 -113.59457111 161.69160191 -113.58374023 164.09130859 C-113.58629318 165.18652328 -113.58884613 166.28173798 -113.59147644 167.41014099 C-113.58464844 168.41403366 -113.57782043 169.41792633 -113.57078552 170.45223999 C-113.56833407 171.75913316 -113.56833407 171.75913316 -113.56583309 173.09242821 C-113.29305361 175.61751277 -112.58303104 177.2571107 -111.3125 179.4375 C-110.94125 178.261875 -110.94125 178.261875 -110.5625 177.0625 C-109.94375 175.268125 -109.94375 175.268125 -109.3125 173.4375 C-109.07917969 172.68726563 -108.84585938 171.93703125 -108.60546875 171.1640625 C-104.70003033 159.85790744 -96.7651527 152.80566819 -86.3125 147.4375 C-86.87517578 146.68919922 -86.87517578 146.68919922 -87.44921875 145.92578125 C-96.75990888 132.86267192 -99.87990692 118.25006855 -98.3125 102.4375 C-95.60359025 87.56173457 -87.93251862 74.15039213 -76.0859375 64.65234375 C-73.88009728 63.12852126 -71.64202465 61.76353711 -69.3125 60.4375 C-68.58933594 59.99792969 -67.86617187 59.55835938 -67.12109375 59.10546875 C-50.63741581 49.87349346 -33.14452964 50.34490303 -15.3125 54.4375 C-15.82039063 53.85484375 -16.32828125 53.2721875 -16.8515625 52.671875 C-25.37159446 42.5244212 -31.95501098 31.19243537 -31.55859375 17.59765625 C-30.81050991 11.03114258 -27.07410182 5.79385911 -22.3125 1.4375 C-15.60457748 -2.63986467 -7.22315856 -3.21029269 0 0 Z M-47.9375 60.3125 C-56.83907253 73.93677178 -56.66695344 92.21314759 -56.62817383 107.89160156 C-56.62502967 110.53753544 -56.64850127 113.18232962 -56.67382812 115.828125 C-56.73634211 132.77049868 -56.59563254 152.83715165 -44.77734375 166.16015625 C-43.22256899 167.68145304 -43.22256899 167.68145304 -40.3125 168.4375 C-33.17574194 166.22450766 -24.43685956 161.87183839 -20.4375 155.4375 C-19.74506146 153.10958115 -19.74506146 153.10958115 -19.3125 150.4375 C-19.03792969 149.25800781 -18.76335937 148.07851562 -18.48046875 146.86328125 C-12.65979059 120.09208135 -11.76858613 84.60134209 -25.1875 60 C-28.37346165 56.15810507 -31.38256619 54.67874173 -36.3125 54.0625 C-41.54130681 54.71610085 -44.38869193 56.42571021 -47.9375 60.3125 Z M-85.3125 150.4375 C-86.29725214 151.53668816 -87.27510473 152.6420602 -88.25 153.75 C-88.79527344 154.36488281 -89.34054687 154.97976562 -89.90234375 155.61328125 C-92.86000683 159.43939942 -92.79703597 163.80357418 -92.3125 168.4375 C-90.12915175 174.29806635 -86.46551193 178.00215872 -81.3125 181.4375 C-68.06485925 184.74941019 -56.59669307 177.50370919 -45.3125 171.4375 C-45.3125 171.1075 -45.3125 170.7775 -45.3125 170.4375 C-46.26769531 170.21835938 -47.22289062 169.99921875 -48.20703125 169.7734375 C-60.8291688 166.73920677 -70.10636091 161.8780015 -80 153.29296875 C-82.25479314 151.26392644 -82.25479314 151.26392644 -85.3125 150.4375 Z " fill="#FFFFFF" transform="translate(791.3125,1.5625)"/>
<path d="M0 0 C13.98724862 -0.09380843 27.97444784 -0.1638901 41.96194744 -0.20724869 C48.45789742 -0.22806547 54.95363507 -0.25627513 61.44946289 -0.30175781 C67.72591533 -0.34542619 74.00216438 -0.36918149 80.2787571 -0.37950897 C82.66558849 -0.38686273 85.05240957 -0.40122231 87.43915367 -0.42292023 C105.72470607 -0.58244526 120.96494199 0.13501707 135.25 13.03125 C145.38123361 23.62299423 149.42512002 36.16843768 149.36572266 50.48632812 C149.08449646 62.36490996 144.47570491 71.96268433 136.5625 80.6875 C135.716875 81.450625 134.87125 82.21375 134 83 C133.47664062 83.49242188 132.95328125 83.98484375 132.4140625 84.4921875 C128.25744237 88.27264292 124.1095195 90.66934198 119 93 C120.0621875 93.31453125 121.124375 93.6290625 122.21875 93.953125 C138.21811209 98.76201772 151.35382724 104.73122682 160 120 C165.3460281 131.34401084 167.15610129 143.16878919 163.375 155.375 C161.28229206 160.82187397 158.65743439 165.45916724 155 170 C154.39800781 170.75023437 153.79601562 171.50046875 153.17578125 172.2734375 C148.86953122 177.08003277 144.16063409 180.3931209 138.5 183.375 C137.91492676 183.69670166 137.32985352 184.01840332 136.72705078 184.34985352 C121.5245069 191.80528825 103.03538409 190.40176423 86.62109375 190.29296875 C84.11190548 190.28736126 81.60271388 190.28309662 79.09352112 190.28010559 C72.54565073 190.26874759 65.99798559 190.23935985 59.45019531 190.20599365 C52.74613437 190.17343181 46.04200873 190.16155847 39.33789062 190.14648438 C26.22517375 190.1144802 13.11259788 190.06398663 0 190 C0 189.01 0 188.02 0 187 C1.8253125 186.4121875 1.8253125 186.4121875 3.6875 185.8125 C7.76117474 184.26955063 10.25655485 182.46965122 13 179 C14.75603991 174.66966683 15.25233744 171.01998178 15.26069641 166.36524963 C15.26778122 165.04609558 15.27486603 163.72694153 15.28216553 162.36781311 C15.27987201 160.91781582 15.27736236 159.46781885 15.2746582 158.01782227 C15.2790083 156.481514 15.28419244 154.94520791 15.29014587 153.40890503 C15.30351469 149.24567542 15.30411694 145.08253671 15.30158257 140.91928983 C15.3005115 137.44018162 15.3053997 133.9610917 15.310188 130.48198742 C15.32127571 122.27272699 15.32172463 114.06351233 15.31567383 105.85424805 C15.30963289 97.39271466 15.32194976 88.93134752 15.3432439 80.46984249 C15.36087074 73.1974747 15.36685957 65.92515978 15.36360615 58.65277141 C15.36179499 54.31262785 15.36441286 49.97260289 15.37832069 45.63247871 C15.39091219 41.5505716 15.38894253 37.46892333 15.37590981 33.38702011 C15.3735474 31.89188868 15.37626667 30.39673894 15.38453293 28.90162849 C15.48305975 17.10707108 15.48305975 17.10707108 10.3125 6.75 C7.08392228 4.30675199 3.83794528 3.27931509 0 2 C0 1.34 0 0.68 0 0 Z M64 2 C64 32.03 64 62.06 64 93 C76.71176025 93.93833325 76.71176025 93.93833325 86.140625 88.8984375 C96.95449889 77.85738139 100.3996694 63.74936336 100.3125 48.75 C100.30686035 47.73510498 100.3012207 46.72020996 100.29541016 45.67456055 C100.07372683 31.94885107 97.20638143 18.37201813 87.625 7.9375 C80.28457127 1.38069002 74.1921312 2 64 2 Z M64 96 C64 126.03 64 156.06 64 187 C79.20663786 188.06645899 79.20663786 188.06645899 92 183 C92.61746094 182.5875 93.23492187 182.175 93.87109375 181.75 C103.34660386 174.57714073 107.26339194 162.81473629 109.75 151.625 C110.89796306 134.97953563 109.2906632 119.72088427 99 106 C94.33200193 100.85417535 90.56103062 98.81187026 84 96 C77.4 96 70.8 96 64 96 Z " fill="#FFFFFF" transform="translate(0,0)"/>
<path d="M0 0 C6.7661386 6.28725664 10.64305394 12.59188419 11.08947754 22.04850769 C11.10647015 23.6249403 11.10782209 25.20159856 11.09570312 26.77807617 C11.1010759 27.64757401 11.10644867 28.51707184 11.11198425 29.41291809 C11.12170104 31.28380817 11.12472504 33.154743 11.12162781 35.02565575 C11.11712003 37.98967641 11.13123127 40.95310946 11.15002441 43.91706848 C11.19287572 51.27197384 11.20405996 58.62686424 11.21624756 65.98187256 C11.22778456 72.21292512 11.25135694 78.44370696 11.29093933 84.67464638 C11.30448641 87.5895445 11.30034433 90.50407397 11.29553223 93.41899109 C11.30487332 95.2092638 11.31504226 96.99953244 11.32617188 98.78979492 C11.32002365 99.59565033 11.31387543 100.40150574 11.30754089 101.23178101 C11.36028127 106.07020021 12.02893821 109.40157235 14.7109375 113.58984375 C17.25882603 115.47115944 17.25882603 115.47115944 19.7109375 116.58984375 C19.7934375 115.45546875 19.8759375 114.32109375 19.9609375 113.15234375 C22.89098376 90.84492487 45.70898498 72.63733752 62.3359375 59.77734375 C63.12081543 59.16914795 63.90569336 58.56095215 64.71435547 57.93432617 C75.09497591 49.9321145 85.82017184 42.4619343 96.64697266 35.0793457 C99.82572761 33.01840491 99.82572761 33.01840491 102.7109375 30.58984375 C95.20364296 30.53888691 87.6963935 30.5040027 80.18896484 30.47998047 C77.63816664 30.46995959 75.08737981 30.45633924 72.53662109 30.43896484 C68.85771871 30.41454417 65.17896901 30.40332116 61.5 30.39453125 C59.80564316 30.37904739 59.80564316 30.37904739 58.07705688 30.36325073 C46.06649291 30.102799 46.06649291 30.102799 35.7734375 35.21484375 C35.0928125 35.99859375 34.4121875 36.78234375 33.7109375 37.58984375 C32.7209375 37.58984375 31.7309375 37.58984375 30.7109375 37.58984375 C30.58716146 31.84244617 30.49651502 26.09582748 30.4362793 20.34741211 C30.41116469 18.39284752 30.37706619 16.43837658 30.33374023 14.48413086 C30.27295316 11.67147707 30.24469767 8.86006673 30.22265625 6.046875 C30.19684982 5.17585648 30.1710434 4.30483795 30.14445496 3.40742493 C30.1440773 2.58695175 30.14369965 1.76647858 30.14331055 0.92114258 C30.13220749 0.20388504 30.12110443 -0.5133725 30.10966492 -1.25236511 C31.09919517 -4.80349926 32.78522735 -6.22009553 35.7109375 -8.41015625 C38.7183424 -9.10838766 41.63209779 -9.05367387 44.70800781 -8.99365234 C46.05268631 -8.99715698 46.05268631 -8.99715698 47.42453003 -9.00073242 C50.37997157 -9.00234408 53.33384309 -8.96835097 56.2890625 -8.93359375 C58.3421777 -8.92680428 60.39530069 -8.92208211 62.44842529 -8.91934204 C66.74579555 -8.90867099 71.04264475 -8.88198451 75.33984375 -8.84228516 C80.86057247 -8.79129006 86.38100234 -8.76625447 91.90193558 -8.7513485 C97.15601969 -8.73659351 102.41003284 -8.71134698 107.6640625 -8.68359375 C109.17675594 -8.67622759 109.17675594 -8.67622759 110.72000885 -8.66871262 C113.55723402 -8.65251254 116.39429586 -8.62911194 119.23144531 -8.60302734 C120.50467148 -8.59663742 120.50467148 -8.59663742 121.80361938 -8.59011841 C127.5958182 -8.52527555 127.5958182 -8.52527555 128.7109375 -7.41015625 C129.52486777 3.78138495 125.64154108 11.96922721 118.7109375 20.58984375 C116.3984375 23.15234375 116.3984375 23.15234375 113.7109375 25.58984375 C113.07285156 26.20859375 112.43476563 26.82734375 111.77734375 27.46484375 C104.06585626 34.74719281 95.42664977 40.58830146 86.7109375 46.58984375 C61.15969981 63.79210494 61.15969981 63.79210494 39.7109375 85.58984375 C41.60637462 85.58984375 43.5012486 85.50441003 45.39453125 85.4140625 C57.69413653 84.98344463 68.0210045 86.94896651 79.7109375 90.58984375 C81.75480291 91.20967178 83.79909333 91.82809965 85.84375 92.4453125 C88.91894648 93.37556182 91.99204653 94.31060496 95.05957031 95.26586914 C95.98350586 95.55324951 96.90744141 95.84062988 97.859375 96.13671875 C98.67583496 96.39291992 99.49229492 96.64912109 100.33349609 96.91308594 C106.7220045 98.73162622 113.50302173 100.06013848 119.7109375 97.21484375 C121.80810427 95.73898344 121.80810427 95.73898344 122.7109375 93.58984375 C123.7009375 93.58984375 124.6909375 93.58984375 125.7109375 93.58984375 C124.97917266 106.27376764 118.47274829 119.449631 109.2109375 128.08984375 C102.8844722 133.68280583 96.26464664 134.15111515 88.08984375 134.03125 C79.66763455 133.4193883 71.63390772 130.33218547 63.7109375 127.58984375 C62.79892578 127.27466797 61.88691406 126.95949219 60.94726562 126.63476562 C57.37405463 125.39354496 53.80255848 124.14953671 50.24536133 122.86303711 C42.31639756 120.00697952 34.44520701 117.78221357 26.2734375 120.90234375 C23.49272064 122.49485939 23.49272064 122.49485939 21.7109375 125.58984375 C20.7209375 125.25984375 19.7309375 124.92984375 18.7109375 124.58984375 C18.7109375 123.26984375 18.7109375 121.94984375 18.7109375 120.58984375 C17.50034668 120.77160156 16.28975586 120.95335937 15.04248047 121.140625 C10.53678303 121.81592762 6.03024604 122.48547671 1.5234375 123.15332031 C-0.42438637 123.44277419 -2.37198131 123.73377306 -4.31933594 124.02636719 C-7.123756 124.44745988 -9.92896128 124.86292935 -12.734375 125.27734375 C-13.60023224 125.40858643 -14.46608948 125.5398291 -15.35818481 125.67504883 C-19.68790419 126.30901631 -23.90225926 126.90993652 -28.2890625 126.58984375 C-31.44842307 123.75731359 -31.82280891 120.69287533 -32.2890625 116.58984375 C-32.90652344 116.98816406 -33.52398437 117.38648438 -34.16015625 117.796875 C-45.89696684 125.13908071 -58.70631186 128.79458347 -72.5703125 125.90625 C-82.3110943 123.16381026 -90.44388178 119.10710709 -96.2890625 110.58984375 C-101.18040355 101.23826289 -102.51691036 93.44611924 -99.7265625 83.21484375 C-95.52081316 70.42174557 -85.97566696 62.3330578 -74.22265625 56.28515625 C-65.15029081 51.73984424 -55.53900078 48.73153581 -45.9140625 45.58984375 C-17.84788254 38.0184547 -17.84788254 38.0184547 3.7109375 20.58984375 C4.99174219 16.34717821 4.97951867 13.52189778 3.2109375 9.52734375 C-2.27371731 -0.07080216 -12.21366954 -3.87295976 -22.4765625 -6.72265625 C-33.31573036 -8.79950411 -47.31091687 -8.8280235 -57.3515625 -3.91015625 C-59.40111422 -2.54727999 -59.40111422 -2.54727999 -60.2890625 -0.41015625 C-60.77019512 4.55457455 -59.79315565 7.03115051 -56.9765625 11.08984375 C-56.02136719 12.53037109 -56.02136719 12.53037109 -55.046875 14 C-54.46679688 14.85464844 -53.88671875 15.70929688 -53.2890625 16.58984375 C-49.53220881 22.2857187 -49.5031299 27.95407192 -50.2890625 34.58984375 C-52.04354439 40.26057986 -56.45475065 44.37379731 -61.2890625 47.58984375 C-68.02886283 50.51466276 -74.72279379 49.82432138 -81.5390625 47.46484375 C-86.73572947 43.92166172 -90.32016387 39.59498457 -92.2890625 33.58984375 C-93.67803758 24.38788388 -91.52894375 17.18661937 -86.2890625 9.58984375 C-75.89336728 -2.63366601 -59.61486173 -8.84568006 -44.0390625 -11.16015625 C-28.63559903 -12.18705381 -12.32601695 -10.21967228 0 0 Z M-47.71875 53.77734375 C-56.82867403 63.67794043 -59.94453828 74.08887384 -59.59765625 87.5078125 C-59.10272063 96.30370153 -56.26155796 103.7030984 -50.078125 110.03125 C-46.38793873 113.24606293 -43.52831786 114.48301139 -38.6640625 114.90234375 C-35.05214862 114.77375696 -35.05214862 114.77375696 -31.2890625 112.58984375 C-31.2890625 90.14984375 -31.2890625 67.70984375 -31.2890625 44.58984375 C-37.0192296 44.58984375 -43.63497836 50.10063616 -47.71875 53.77734375 Z " fill="#FFFFFF" transform="translate(270.2890625,64.41015625)"/>
<path d="M0 0 C17.68038626 12.36542352 26.33512095 28.58163351 30.45703125 49.296875 C33.43707424 68.52808576 28.14590981 88.20364256 17 104 C6.20848756 117.56588992 -6.70325907 126.21366007 -24 129 C-42.5027349 130.79129193 -57.49523459 124.9575847 -71.75 113.3125 C-84.83544454 100.97136515 -92.58238958 83.43880594 -93.3359375 65.51953125 C-93.66536472 44.76561668 -89.49678028 26.70617241 -75.5234375 10.5390625 C-55.40077963 -9.70819387 -24.8598445 -15.89677132 0 0 Z M-42.0625 0.375 C-58.95615969 24.13035181 -54.15601531 70.83013226 -49.609375 98.36572266 C-47.90474944 107.82599992 -45.90823478 118.19880718 -38.08203125 124.55859375 C-34.5164185 126.66209837 -32.4847052 127.04929205 -28.3125 126.625 C-21.32818023 123.19872992 -18.53070352 117.0357921 -16 110 C-10.92204923 94.27245804 -10.64028903 77.44036817 -10.75 61.0625 C-10.75310181 60.23304871 -10.75620361 59.40359741 -10.75939941 58.54901123 C-10.17498519 25.91652303 -10.17498519 25.91652303 -23 -3 C-30.54604356 -8.23867299 -36.38625158 -6.3682124 -42.0625 0.375 Z " fill="#FFFFFF" transform="translate(918,62)"/>
<path d="M0 0 C6.38362527 5.18419672 11.02561836 11.11199311 12.6875 19.25 C12.96235179 22.23955106 12.97826065 25.21039364 12.97460938 28.21118164 C12.98144241 29.08038742 12.98827545 29.9495932 12.99531555 30.84513855 C13.00884469 32.72151695 13.01793562 34.59793161 13.02302551 36.47435188 C13.03135189 39.44652608 13.05189005 42.41839851 13.07556152 45.39048767 C13.13182115 52.76874408 13.16716386 60.14707381 13.20318604 67.52545166 C13.23446566 73.76936516 13.27367997 80.0131312 13.32344055 86.25692558 C13.3434619 89.1805865 13.35181782 92.10413223 13.35974121 95.02784729 C13.37271642 96.82464006 13.38623714 98.62142901 13.40039062 100.41821289 C13.39940872 101.22721039 13.39842682 102.03620789 13.39741516 102.86972046 C13.4465607 107.3571003 13.86597431 111.06400552 15.6875 115.25 C17.52083333 116.58333333 17.52083333 116.58333333 19.6875 117.25 C21.02083333 117.91666667 22.35416667 118.58333333 23.6875 119.25 C23.6875 119.91 23.6875 120.57 23.6875 121.25 C15.82128742 123.16727733 7.87030954 124.36760084 -0.13330078 125.53710938 C-2.44008347 125.87537884 -4.74540958 126.22257214 -7.05078125 126.5703125 C-8.5363785 126.78960399 -10.02205314 127.00837204 -11.5078125 127.2265625 C-12.52683151 127.38120468 -12.52683151 127.38120468 -13.56643677 127.53897095 C-17.84766153 128.15471774 -21.9894176 128.47866671 -26.3125 128.25 C-29.51896383 125.47106468 -29.84700501 122.34635593 -30.3125 118.25 C-30.92996094 118.64832031 -31.54742187 119.04664063 -32.18359375 119.45703125 C-43.92040434 126.79923696 -56.72974936 130.45473972 -70.59375 127.56640625 C-81.43004309 124.51553401 -89.37307478 119.97079562 -95.3125 110.25 C-99.54122266 102.66746282 -100.24119054 94.030281 -98.3125 85.625 C-94.81984677 74.65712061 -86.86718546 66.34145019 -77.0625 60.625 C-68.66563767 56.30928378 -59.90167413 53.04193531 -50.98828125 49.98046875 C-50.15120636 49.6929071 -49.31413147 49.40534546 -48.45169067 49.10906982 C-44.97853462 47.91959853 -41.5040999 46.73416629 -38.02563477 45.56030273 C-28.80067552 42.4400319 -19.72237595 39.18742061 -10.88671875 35.07421875 C-9.85711784 34.5986982 -9.85711784 34.5986982 -8.80671692 34.11357117 C-2.84894718 31.24827117 3.64262123 27.33975754 6.6875 21.25 C7.52784802 15.36756383 5.95024251 12.01790232 2.57421875 7.390625 C-4.68552315 -0.8461008 -15.67583962 -4.36550353 -26.3125 -5.75 C-42.65140014 -6.76795282 -42.65140014 -6.76795282 -57.3125 -0.75 C-58.73086159 2.08672318 -58.57610578 4.09819175 -58.3125 7.25 C-56.93384508 10.12819783 -56.93384508 10.12819783 -55 12.8125 C-54.38511719 13.72128906 -53.77023437 14.63007812 -53.13671875 15.56640625 C-52.53472656 16.45199219 -51.93273437 17.33757812 -51.3125 18.25 C-48.01687237 23.38165327 -46.87908292 27.66290336 -47.609375 33.70703125 C-49.27038614 41.01323565 -53.1827657 45.11886814 -59.3125 49.25 C-65.3893959 52.01222541 -72.08512843 51.8281097 -78.33203125 49.49609375 C-84.35438459 46.36027142 -88.17318533 41.6491781 -90.3125 35.25 C-91.59500823 25.70543877 -89.31827493 19.12196682 -83.99609375 11.3203125 C-65.64015613 -12.21294085 -23.77343961 -16.49024713 0 0 Z M-45.7421875 55.4375 C-54.74073756 65.21705629 -57.86147002 75.38961586 -57.62109375 88.58203125 C-56.87743546 97.42121012 -54.51642 105.339402 -48.16015625 111.72265625 C-43.748146 115.36979369 -40.04649831 116.52362484 -34.4375 116 C-31.58323712 115.73286457 -31.58323712 115.73286457 -29.3125 114.25 C-29.2182826 112.13318683 -29.19507239 110.01319242 -29.19897461 107.89428711 C-29.19882858 107.23089828 -29.19868256 106.56750946 -29.1985321 105.88401794 C-29.19923119 103.68176044 -29.20702335 101.47958655 -29.21484375 99.27734375 C-29.21670794 97.75419664 -29.21813184 96.23104893 -29.21913147 94.707901 C-29.22295654 90.69162349 -29.23278672 86.67538192 -29.24383545 82.65911865 C-29.25404981 78.56376634 -29.25862914 74.46840824 -29.26367188 70.37304688 C-29.274409 62.33201472 -29.29148528 54.29101183 -29.3125 46.25 C-35.0426671 46.25 -41.65841586 51.76079241 -45.7421875 55.4375 Z " fill="#FFFFFF" transform="translate(498.3125,62.75)"/>
<path d="M0 0 C5.32773041 3.10693108 8.78184515 7.17336287 11.0625 12.875 C12.57613431 21.50271555 11.72184246 27.13079847 6.6875 34.4375 C0.56781447 40.30275659 -5.55761508 40.9111974 -13.71875 40.84375 C-19.10370561 40.23501589 -22.5248757 38.25015265 -26.3125 34.4375 C-30.80343605 28.60430094 -31.99876709 22.68289679 -31.3125 15.4375 C-30.13762606 9.26941184 -27.17307744 5.86896725 -22.4453125 1.8828125 C-15.80549496 -2.61669755 -7.35660588 -3.29632533 0 0 Z " fill="#FFFFFF" transform="translate(666.3125,1.5625)"/>
</svg>
